<svg width="35" height="22" viewBox="0 0 35 22" fill="none" xmlns="http://www.w3.org/2000/svg">
<g clip-path="url(#clip0_8_973)">
<path d="M16.1581 8.25001H18.9717V5.50001H23.1922V3.66667H18.9717V0.916672H16.1581V3.66667H11.9376V5.50001H16.1581V8.25001ZM10.5308 16.5C8.98328 16.5 7.73121 17.325 7.73121 18.3333C7.73121 19.3417 8.98328 20.1667 10.5308 20.1667C12.0783 20.1667 13.3444 19.3417 13.3444 18.3333C13.3444 17.325 12.0783 16.5 10.5308 16.5ZM24.599 16.5C23.0515 16.5 21.7995 17.325 21.7995 18.3333C21.7995 19.3417 23.0515 20.1667 24.599 20.1667C26.1465 20.1667 27.4127 19.3417 27.4127 18.3333C27.4127 17.325 26.1465 16.5 24.599 16.5ZM10.77 13.5208L10.8122 13.4108L12.0783 11.9167H22.5591C23.6143 11.9167 24.5428 11.5408 25.0211 10.9725L30.4514 4.54667L28.0036 3.66667H27.9895L26.442 5.50001L22.5591 10.0833H12.6832L12.5003 9.83584L9.34906 5.50001L8.01257 3.66667L6.69016 1.83334H2.08984V3.66667H4.90349L9.96806 10.6242L8.06885 12.87C7.84376 13.1267 7.71714 13.4292 7.71714 13.75C7.71714 14.7583 8.98328 15.5833 10.5308 15.5833H27.4127V13.75H11.1217C10.9388 13.75 10.77 13.6492 10.77 13.5208Z" fill="black"/>
</g>
<defs>
<clipPath id="clip0_8_973">
<rect width="33.7638" height="22" fill="white" transform="translate(0.682617)"/>
</clipPath>
</defs>
</svg>
