<svg width="25" height="16" viewBox="0 0 25 16" fill="none" xmlns="http://www.w3.org/2000/svg">
<g clip-path="url(#clip0_45_578)">
<path d="M11.6564 6.27986H13.6876V4.47986H16.7345V3.27986H13.6876V1.47986H11.6564V3.27986H8.60945V4.47986H11.6564V6.27986ZM7.59382 11.6799C6.47662 11.6799 5.5727 12.2199 5.5727 12.8799C5.5727 13.5399 6.47662 14.0799 7.59382 14.0799C8.71102 14.0799 9.62509 13.5399 9.62509 12.8799C9.62509 12.2199 8.71102 11.6799 7.59382 11.6799ZM17.7502 11.6799C16.633 11.6799 15.7291 12.2199 15.7291 12.8799C15.7291 13.5399 16.633 14.0799 17.7502 14.0799C18.8674 14.0799 19.7815 13.5399 19.7815 12.8799C19.7815 12.2199 18.8674 11.6799 17.7502 11.6799ZM7.76648 9.72986L7.79695 9.65786L8.71102 8.67986H16.2775C17.0392 8.67986 17.7096 8.43386 18.0549 8.06186L21.9752 3.85586L20.208 3.27986H20.1979L19.0807 4.47986L16.2775 7.47986H9.14774L9.01571 7.31786L6.74068 4.47986L5.77583 3.27986L4.82113 2.07986H1.5V3.27986H3.53127L7.18756 7.83386L5.81645 9.30386C5.65395 9.47186 5.56255 9.66986 5.56255 9.87986C5.56255 10.5399 6.47662 11.0799 7.59382 11.0799H19.7815V9.87986H8.02039C7.88835 9.87986 7.76648 9.81386 7.76648 9.72986Z" fill="black"/>
</g>
<defs>
<clipPath id="clip0_45_578">
<rect width="24.3753" height="14.4" fill="white" transform="translate(0.484375 0.879883)"/>
</clipPath>
</defs>
</svg>
