<svg width="35" height="22" viewBox="0 0 35 22" fill="none" xmlns="http://www.w3.org/2000/svg">
<g clip-path="url(#clip0_8_987)">
<path d="M16.1591 8.25002H18.9727V5.50002H23.1932V3.66669H18.9727V0.916687H16.1591V3.66669H11.9386V5.50002H16.1591V8.25002ZM10.5318 16.5C8.98426 16.5 7.73219 17.325 7.73219 18.3334C7.73219 19.3417 8.98426 20.1667 10.5318 20.1667C12.0793 20.1667 13.3454 19.3417 13.3454 18.3334C13.3454 17.325 12.0793 16.5 10.5318 16.5ZM24.6 16.5C23.0525 16.5 21.8004 17.325 21.8004 18.3334C21.8004 19.3417 23.0525 20.1667 24.6 20.1667C26.1475 20.1667 27.4137 19.3417 27.4137 18.3334C27.4137 17.325 26.1475 16.5 24.6 16.5ZM10.7709 13.5209L10.8131 13.4109L12.0793 11.9167H22.5601C23.6152 11.9167 24.5437 11.5409 25.0221 10.9725L30.4524 4.54669L28.0045 3.66669H27.9905L26.443 5.50002L22.5601 10.0834H12.6842L12.5013 9.83585L9.35003 5.50002L8.01355 3.66669L6.69114 1.83335H2.09082V3.66669H4.90447L9.96904 10.6242L8.06982 12.87C7.84473 13.1267 7.71812 13.4292 7.71812 13.75C7.71812 14.7584 8.98426 15.5834 10.5318 15.5834H27.4137V13.75H11.1226C10.9397 13.75 10.7709 13.6492 10.7709 13.5209Z" fill="black"/>
</g>
<defs>
<clipPath id="clip0_8_987">
<rect width="33.7638" height="22" fill="white" transform="translate(0.683594)"/>
</clipPath>
</defs>
</svg>
