<svg width="35" height="22" viewBox="0 0 35 22" fill="none" xmlns="http://www.w3.org/2000/svg">
<g clip-path="url(#clip0_8_826)">
<path d="M15.9442 8.25002H18.7579V5.50002H22.9783V3.66669H18.7579V0.916687H15.9442V3.66669H11.7237V5.50002H15.9442V8.25002ZM10.3169 16.5C8.76942 16.5 7.51734 17.325 7.51734 18.3334C7.51734 19.3417 8.76942 20.1667 10.3169 20.1667C11.8644 20.1667 13.1306 19.3417 13.1306 18.3334C13.1306 17.325 11.8644 16.5 10.3169 16.5ZM24.3852 16.5C22.8377 16.5 21.5856 17.325 21.5856 18.3334C21.5856 19.3417 22.8377 20.1667 24.3852 20.1667C25.9327 20.1667 27.1988 19.3417 27.1988 18.3334C27.1988 17.325 25.9327 16.5 24.3852 16.5ZM10.5561 13.5209L10.5983 13.4109L11.8644 11.9167H22.3453C23.4004 11.9167 24.3289 11.5409 24.8072 10.9725L30.2376 4.54669L27.7897 3.66669H27.7756L26.2281 5.50002L22.3453 10.0834H12.4694L12.2865 9.83585L9.13519 5.50002L7.79871 3.66669L6.47629 1.83335H1.87598V3.66669H4.68963L9.75419 10.6242L7.85498 12.87C7.62989 13.1267 7.50327 13.4292 7.50327 13.75C7.50327 14.7584 8.76942 15.5834 10.3169 15.5834H27.1988V13.75H10.9078C10.7249 13.75 10.5561 13.6492 10.5561 13.5209Z" fill="black"/>
</g>
<defs>
<clipPath id="clip0_8_826">
<rect width="33.7638" height="22" fill="white" transform="translate(0.46875)"/>
</clipPath>
</defs>
</svg>
