<svg width="35" height="22" viewBox="0 0 35 22" fill="none" xmlns="http://www.w3.org/2000/svg">
<g clip-path="url(#clip0_8_1031)">
<path d="M16.3593 8.25002H19.1729V5.50002H23.3934V3.66669H19.1729V0.916687H16.3593V3.66669H12.1388V5.50002H16.3593V8.25002ZM10.732 16.5C9.18446 16.5 7.93238 17.325 7.93238 18.3334C7.93238 19.3417 9.18446 20.1667 10.732 20.1667C12.2795 20.1667 13.5456 19.3417 13.5456 18.3334C13.5456 17.325 12.2795 16.5 10.732 16.5ZM24.8002 16.5C23.2527 16.5 22.0006 17.325 22.0006 18.3334C22.0006 19.3417 23.2527 20.1667 24.8002 20.1667C26.3477 20.1667 27.6139 19.3417 27.6139 18.3334C27.6139 17.325 26.3477 16.5 24.8002 16.5ZM10.9711 13.5209L11.0133 13.4109L12.2795 11.9167H22.7603C23.8154 11.9167 24.7439 11.5409 25.2223 10.9725L30.6526 4.54669L28.2047 3.66669H28.1907L26.6431 5.50002L22.7603 10.0834H12.8844L12.7015 9.83585L9.55023 5.50002L8.21375 3.66669L6.89133 1.83335H2.29102V3.66669H5.10466L10.1692 10.6242L8.27002 12.87C8.04493 13.1267 7.91831 13.4292 7.91831 13.75C7.91831 14.7584 9.18446 15.5834 10.732 15.5834H27.6139V13.75H11.3228C11.1399 13.75 10.9711 13.6492 10.9711 13.5209Z" fill="black"/>
</g>
<defs>
<clipPath id="clip0_8_1031">
<rect width="33.7638" height="22" fill="white" transform="translate(0.883789)"/>
</clipPath>
</defs>
</svg>
