<svg width="34" height="22" viewBox="0 0 34 22" fill="none" xmlns="http://www.w3.org/2000/svg">
<g clip-path="url(#clip0_8_887)">
<path d="M15.6063 8.25002H18.42V5.50002H22.6405V3.66669H18.42V0.916687H15.6063V3.66669H11.3859V5.50002H15.6063V8.25002ZM9.97903 16.5C8.43153 16.5 7.17945 17.325 7.17945 18.3334C7.17945 19.3417 8.43153 20.1667 9.97903 20.1667C11.5265 20.1667 12.7927 19.3417 12.7927 18.3334C12.7927 17.325 11.5265 16.5 9.97903 16.5ZM24.0473 16.5C22.4998 16.5 21.2477 17.325 21.2477 18.3334C21.2477 19.3417 22.4998 20.1667 24.0473 20.1667C25.5948 20.1667 26.8609 19.3417 26.8609 18.3334C26.8609 17.325 25.5948 16.5 24.0473 16.5ZM10.2182 13.5209L10.2604 13.4109L11.5265 11.9167H22.0074C23.0625 11.9167 23.991 11.5409 24.4693 10.9725L29.8997 4.54669L27.4518 3.66669H27.4377L25.8902 5.50002L22.0074 10.0834H12.1315L11.9486 9.83585L8.7973 5.50002L7.46082 3.66669L6.1384 1.83335H1.53809V3.66669H4.35173L9.4163 10.6242L7.51709 12.87C7.292 13.1267 7.16538 13.4292 7.16538 13.75C7.16538 14.7584 8.43153 15.5834 9.97903 15.5834H26.8609V13.75H10.5699C10.387 13.75 10.2182 13.6492 10.2182 13.5209Z" fill="black"/>
</g>
<defs>
<clipPath id="clip0_8_887">
<rect width="33.7638" height="22" fill="white" transform="translate(0.130859)"/>
</clipPath>
</defs>
</svg>
