<svg width="34" height="22" viewBox="0 0 34 22" fill="none" xmlns="http://www.w3.org/2000/svg">
<g clip-path="url(#clip0_8_944)">
<path d="M15.7902 8.25002H18.532V5.50002H22.6447V3.66669H18.532V0.916687H15.7902V3.66669H11.6774V5.50002H15.7902V8.25002ZM10.3065 16.5C8.79852 16.5 7.57841 17.325 7.57841 18.3334C7.57841 19.3417 8.79852 20.1667 10.3065 20.1667C11.8145 20.1667 13.0483 19.3417 13.0483 18.3334C13.0483 17.325 11.8145 16.5 10.3065 16.5ZM24.0156 16.5C22.5076 16.5 21.2875 17.325 21.2875 18.3334C21.2875 19.3417 22.5076 20.1667 24.0156 20.1667C25.5236 20.1667 26.7574 19.3417 26.7574 18.3334C26.7574 17.325 25.5236 16.5 24.0156 16.5ZM10.5396 13.5209L10.5807 13.4109L11.8145 11.9167H22.0278C23.056 11.9167 23.9608 11.5409 24.4269 10.9725L29.7186 4.54669L27.3332 3.66669H27.3195L25.8115 5.50002L22.0278 10.0834H12.404L12.2258 9.83585L9.15495 5.50002L7.85259 3.66669L6.56393 1.83335H2.08105V3.66669H4.82288L9.75815 10.6242L7.90742 12.87C7.68808 13.1267 7.5647 13.4292 7.5647 13.75C7.5647 14.7584 8.79852 15.5834 10.3065 15.5834H26.7574V13.75H10.8823C10.7041 13.75 10.5396 13.6492 10.5396 13.5209Z" fill="black"/>
</g>
<defs>
<clipPath id="clip0_8_944">
<rect width="32.9018" height="22" fill="white" transform="translate(0.709961)"/>
</clipPath>
</defs>
</svg>
