<svg width="34" height="22" viewBox="0 0 34 22" fill="none" xmlns="http://www.w3.org/2000/svg">
<g clip-path="url(#clip0_8_842)">
<path d="M15.621 8.24999H18.4346V5.49999H22.6551V3.66666H18.4346V0.916656H15.621V3.66666H11.4005V5.49999H15.621V8.24999ZM9.99368 16.5C8.44617 16.5 7.1941 17.325 7.1941 18.3333C7.1941 19.3417 8.44617 20.1667 9.99368 20.1667C11.5412 20.1667 12.8073 19.3417 12.8073 18.3333C12.8073 17.325 11.5412 16.5 9.99368 16.5ZM24.0619 16.5C22.5144 16.5 21.2623 17.325 21.2623 18.3333C21.2623 19.3417 22.5144 20.1667 24.0619 20.1667C25.6094 20.1667 26.8756 19.3417 26.8756 18.3333C26.8756 17.325 25.6094 16.5 24.0619 16.5ZM10.2328 13.5208L10.275 13.4108L11.5412 11.9167H22.022C23.0771 11.9167 24.0057 11.5408 24.484 10.9725L29.9143 4.54666L27.4664 3.66666H27.4524L25.9049 5.49999L22.022 10.0833H12.1461L11.9632 9.83582L8.81195 5.49999L7.47547 3.66666L6.15305 1.83332H1.55273V3.66666H4.36638L9.43095 10.6242L7.53174 12.87C7.30665 13.1267 7.18003 13.4292 7.18003 13.75C7.18003 14.7583 8.44617 15.5833 9.99368 15.5833H26.8756V13.75H10.5845C10.4017 13.75 10.2328 13.6492 10.2328 13.5208Z" fill="black"/>
</g>
<defs>
<clipPath id="clip0_8_842">
<rect width="33.7638" height="22" fill="white" transform="translate(0.145508)"/>
</clipPath>
</defs>
</svg>
