<svg width="25" height="16" viewBox="0 0 25 16" fill="none" xmlns="http://www.w3.org/2000/svg">
<g clip-path="url(#clip0_45_593)">
<path d="M11.3175 6.27986H13.3488V4.47986H16.3957V3.27986H13.3488V1.47986H11.3175V3.27986H8.27059V4.47986H11.3175V6.27986ZM7.25495 11.6799C6.13775 11.6799 5.23383 12.2199 5.23383 12.8799C5.23383 13.5399 6.13775 14.0799 7.25495 14.0799C8.37215 14.0799 9.28622 13.5399 9.28622 12.8799C9.28622 12.2199 8.37215 11.6799 7.25495 11.6799ZM17.4113 11.6799C16.2941 11.6799 15.3902 12.2199 15.3902 12.8799C15.3902 13.5399 16.2941 14.0799 17.4113 14.0799C18.5285 14.0799 19.4426 13.5399 19.4426 12.8799C19.4426 12.2199 18.5285 11.6799 17.4113 11.6799ZM7.42761 9.72986L7.45808 9.65786L8.37215 8.67986H15.9386C16.7004 8.67986 17.3707 8.43386 17.716 8.06186L21.6364 3.85586L19.8692 3.27986H19.859L18.7418 4.47986L15.9386 7.47986H8.80887L8.67684 7.31786L6.40182 4.47986L5.43696 3.27986L4.48226 2.07986H1.16113V3.27986H3.19241L6.8487 7.83386L5.47759 9.30386C5.31509 9.47186 5.22368 9.66986 5.22368 9.87986C5.22368 10.5399 6.13775 11.0799 7.25495 11.0799H19.4426V9.87986H7.68152C7.54949 9.87986 7.42761 9.81386 7.42761 9.72986Z" fill="black"/>
</g>
<defs>
<clipPath id="clip0_45_593">
<rect width="24.3753" height="14.4" fill="white" transform="translate(0.145508 0.879883)"/>
</clipPath>
</defs>
</svg>
