<svg width="35" height="22" viewBox="0 0 35 22" fill="none" xmlns="http://www.w3.org/2000/svg">
<g clip-path="url(#clip0_8_930)">
<path d="M16.321 8.25002H19.1358V5.50002H23.3579V3.66669H19.1358V0.916687H16.321V3.66669H12.0988V5.50002H16.321V8.25002ZM10.6914 16.5C9.14328 16.5 7.89071 17.325 7.89071 18.3334C7.89071 19.3417 9.14328 20.1667 10.6914 20.1667C12.2395 20.1667 13.5062 19.3417 13.5062 18.3334C13.5062 17.325 12.2395 16.5 10.6914 16.5ZM24.7653 16.5C23.2172 16.5 21.9646 17.325 21.9646 18.3334C21.9646 19.3417 23.2172 20.1667 24.7653 20.1667C26.3134 20.1667 27.5801 19.3417 27.5801 18.3334C27.5801 17.325 26.3134 16.5 24.7653 16.5ZM10.9307 13.5209L10.9729 13.4109L12.2395 11.9167H22.7246C23.7801 11.9167 24.709 11.5409 25.1875 10.9725L30.6201 4.54669L28.1712 3.66669H28.1571L26.609 5.50002L22.7246 10.0834H12.8447L12.6618 9.83585L9.50921 5.50002L8.17218 3.66669L6.84924 1.83335H2.24707V3.66669H5.06185L10.1285 10.6242L8.22848 12.87C8.0033 13.1267 7.87663 13.4292 7.87663 13.75C7.87663 14.7584 9.14328 15.5834 10.6914 15.5834H27.5801V13.75H11.2825C11.0996 13.75 10.9307 13.6492 10.9307 13.5209Z" fill="black"/>
</g>
<defs>
<clipPath id="clip0_8_930">
<rect width="33.7774" height="22" fill="white" transform="translate(0.839844)"/>
</clipPath>
</defs>
</svg>
