<svg width="35" height="22" viewBox="0 0 35 22" fill="none" xmlns="http://www.w3.org/2000/svg">
<g clip-path="url(#clip0_8_680)">
<path d="M15.7592 8.24999H18.5728V5.49999H22.7933V3.66666H18.5728V0.916656H15.7592V3.66666H11.5387V5.49999H15.7592V8.24999ZM10.1319 16.5C8.58436 16.5 7.33228 17.325 7.33228 18.3333C7.33228 19.3417 8.58436 20.1667 10.1319 20.1667C11.6794 20.1667 12.9455 19.3417 12.9455 18.3333C12.9455 17.325 11.6794 16.5 10.1319 16.5ZM24.2001 16.5C22.6526 16.5 21.4005 17.325 21.4005 18.3333C21.4005 19.3417 22.6526 20.1667 24.2001 20.1667C25.7476 20.1667 27.0138 19.3417 27.0138 18.3333C27.0138 17.325 25.7476 16.5 24.2001 16.5ZM10.371 13.5208L10.4132 13.4108L11.6794 11.9167H22.1602C23.2153 11.9167 24.1438 11.5408 24.6222 10.9725L30.0525 4.54666L27.6046 3.66666H27.5906L26.043 5.49999L22.1602 10.0833H12.2843L12.1014 9.83582L8.95013 5.49999L7.61365 3.66666L6.29123 1.83332H1.69092V3.66666H4.50457L9.56913 10.6242L7.66992 12.87C7.44483 13.1267 7.31822 13.4292 7.31822 13.75C7.31822 14.7583 8.58436 15.5833 10.1319 15.5833H27.0138V13.75H10.7227C10.5398 13.75 10.371 13.6492 10.371 13.5208Z" fill="black"/>
</g>
<defs>
<clipPath id="clip0_8_680">
<rect width="33.7638" height="22" fill="white" transform="translate(0.28418)"/>
</clipPath>
</defs>
</svg>
