<svg width="26" height="16" viewBox="0 0 26 16" fill="none" xmlns="http://www.w3.org/2000/svg">
<g clip-path="url(#clip0_8_781)">
<path d="M12.0694 6.27986H14.1429V4.47986H17.2532V3.27986H14.1429V1.47986H12.0694V3.27986H8.95905V4.47986H12.0694V6.27986ZM7.92228 11.6799C6.78183 11.6799 5.85911 12.2199 5.85911 12.8799C5.85911 13.5399 6.78183 14.0799 7.92228 14.0799C9.06273 14.0799 9.99582 13.5399 9.99582 12.8799C9.99582 12.2199 9.06273 11.6799 7.92228 11.6799ZM18.29 11.6799C17.1495 11.6799 16.2268 12.2199 16.2268 12.8799C16.2268 13.5399 17.1495 14.0799 18.29 14.0799C19.4304 14.0799 20.3635 13.5399 20.3635 12.8799C20.3635 12.2199 19.4304 11.6799 18.29 11.6799ZM8.09853 9.72986L8.12963 9.65786L9.06273 8.67986H16.7867C17.5642 8.67986 18.2485 8.43386 18.601 8.06186L22.6029 3.85586L20.799 3.27986H20.7886L19.6481 4.47986L16.7867 7.47986H9.50854L9.37376 7.31786L7.05139 4.47986L6.06646 3.27986L5.0919 2.07986H1.70166V3.27986H3.7752L7.50757 7.83386L6.10793 9.30386C5.94205 9.47186 5.84874 9.66986 5.84874 9.87986C5.84874 10.5399 6.78183 11.0799 7.92228 11.0799H20.3635V9.87986H8.35772C8.22294 9.87986 8.09853 9.81386 8.09853 9.72986Z" fill="black"/>
</g>
<defs>
<clipPath id="clip0_8_781">
<rect width="24.8825" height="14.4" fill="white" transform="translate(0.665039 0.879883)"/>
</clipPath>
</defs>
</svg>
