<svg width="26" height="16" viewBox="0 0 26 16" fill="none" xmlns="http://www.w3.org/2000/svg">
<path d="M12.0718 6.27986H14.1453V4.47986H17.2557V3.27986H14.1453V1.47986H12.0718V3.27986H8.96149V4.47986H12.0718V6.27986ZM7.92472 11.6799C6.78427 11.6799 5.86155 12.2199 5.86155 12.8799C5.86155 13.5399 6.78427 14.0799 7.92472 14.0799C9.06517 14.0799 9.99826 13.5399 9.99826 12.8799C9.99826 12.2199 9.06517 11.6799 7.92472 11.6799ZM18.2924 11.6799C17.152 11.6799 16.2292 12.2199 16.2292 12.8799C16.2292 13.5399 17.152 14.0799 18.2924 14.0799C19.4329 14.0799 20.366 13.5399 20.366 12.8799C20.366 12.2199 19.4329 11.6799 18.2924 11.6799ZM8.10097 9.72986L8.13208 9.65786L9.06517 8.67986H16.7891C17.5667 8.67986 18.2509 8.43386 18.6035 8.06186L22.6054 3.85586L20.8014 3.27986H20.791L19.6506 4.47986L16.7891 7.47986H9.51098L9.3762 7.31786L7.05383 4.47986L6.0689 3.27986L5.09434 2.07986H1.7041V3.27986H3.77764L7.51001 7.83386L6.11037 9.30386C5.94449 9.47186 5.85118 9.66986 5.85118 9.87986C5.85118 10.5399 6.78427 11.0799 7.92472 11.0799H20.366V9.87986H8.36017C8.22538 9.87986 8.10097 9.81386 8.10097 9.72986Z" fill="black"/>
</svg>
