<svg width="26" height="16" viewBox="0 0 26 16" fill="none" xmlns="http://www.w3.org/2000/svg">
<g clip-path="url(#clip0_45_608)">
<path d="M11.9796 6.27986H14.0109V4.47986H17.0578V3.27986H14.0109V1.47986H11.9796V3.27986H8.9327V4.47986H11.9796V6.27986ZM7.91706 11.6799C6.79986 11.6799 5.89594 12.2199 5.89594 12.8799C5.89594 13.5399 6.79986 14.0799 7.91706 14.0799C9.03426 14.0799 9.94833 13.5399 9.94833 12.8799C9.94833 12.2199 9.03426 11.6799 7.91706 11.6799ZM18.0734 11.6799C16.9562 11.6799 16.0523 12.2199 16.0523 12.8799C16.0523 13.5399 16.9562 14.0799 18.0734 14.0799C19.1906 14.0799 20.1047 13.5399 20.1047 12.8799C20.1047 12.2199 19.1906 11.6799 18.0734 11.6799ZM8.08972 9.72986L8.12019 9.65786L9.03426 8.67986H16.6008C17.3625 8.67986 18.0328 8.43386 18.3781 8.06186L22.2985 3.85586L20.5313 3.27986H20.5211L19.4039 4.47986L16.6008 7.47986H9.47098L9.33895 7.31786L7.06393 4.47986L6.09907 3.27986L5.14437 2.07986H1.82324V3.27986H3.85451L7.51081 7.83386L6.1397 9.30386C5.97719 9.47186 5.88579 9.66986 5.88579 9.87986C5.88579 10.5399 6.79986 11.0799 7.91706 11.0799H20.1047V9.87986H8.34363C8.21159 9.87986 8.08972 9.81386 8.08972 9.72986Z" fill="black"/>
</g>
<defs>
<clipPath id="clip0_45_608">
<rect width="24.3753" height="14.4" fill="white" transform="translate(0.807617 0.879883)"/>
</clipPath>
</defs>
</svg>
