<svg width="26" height="16" viewBox="0 0 26 16" fill="none" xmlns="http://www.w3.org/2000/svg">
<g clip-path="url(#clip0_45_563)">
<path d="M11.9943 6.27986H14.0255V4.47986H17.0724V3.27986H14.0255V1.47986H11.9943V3.27986H8.94734V4.47986H11.9943V6.27986ZM7.93171 11.6799C6.81451 11.6799 5.91059 12.2199 5.91059 12.8799C5.91059 13.5399 6.81451 14.0799 7.93171 14.0799C9.04891 14.0799 9.96298 13.5399 9.96298 12.8799C9.96298 12.2199 9.04891 11.6799 7.93171 11.6799ZM18.0881 11.6799C16.9709 11.6799 16.067 12.2199 16.067 12.8799C16.067 13.5399 16.9709 14.0799 18.0881 14.0799C19.2053 14.0799 20.1193 13.5399 20.1193 12.8799C20.1193 12.2199 19.2053 11.6799 18.0881 11.6799ZM8.10437 9.72986L8.13484 9.65786L9.04891 8.67986H16.6154C17.3771 8.67986 18.0474 8.43386 18.3928 8.06186L22.3131 3.85586L20.5459 3.27986H20.5358L19.4186 4.47986L16.6154 7.47986H9.48563L9.3536 7.31786L7.07857 4.47986L6.11372 3.27986L5.15902 2.07986H1.83789V3.27986H3.86916L7.52545 7.83386L6.15435 9.30386C5.99184 9.47186 5.90044 9.66986 5.90044 9.87986C5.90044 10.5399 6.81451 11.0799 7.93171 11.0799H20.1193V9.87986H8.35828C8.22624 9.87986 8.10437 9.81386 8.10437 9.72986Z" fill="black"/>
</g>
<defs>
<clipPath id="clip0_45_563">
<rect width="24.3753" height="14.4" fill="white" transform="translate(0.822266 0.879883)"/>
</clipPath>
</defs>
</svg>
