<svg width="26" height="16" viewBox="0 0 26 16" fill="none" xmlns="http://www.w3.org/2000/svg">
<g clip-path="url(#clip0_44_383)">
<path d="M12.0698 6.27989H14.1434V4.47989H17.2537V3.27989H14.1434V1.47989H12.0698V3.27989H8.95954V4.47989H12.0698V6.27989ZM7.92277 11.6799C6.78232 11.6799 5.8596 12.2199 5.8596 12.8799C5.8596 13.5399 6.78232 14.0799 7.92277 14.0799C9.06322 14.0799 9.99631 13.5399 9.99631 12.8799C9.99631 12.2199 9.06322 11.6799 7.92277 11.6799ZM18.2905 11.6799C17.15 11.6799 16.2273 12.2199 16.2273 12.8799C16.2273 13.5399 17.15 14.0799 18.2905 14.0799C19.4309 14.0799 20.364 13.5399 20.364 12.8799C20.364 12.2199 19.4309 11.6799 18.2905 11.6799ZM8.09902 9.72989L8.13012 9.65789L9.06322 8.67989H16.7872C17.5647 8.67989 18.249 8.43389 18.6015 8.06189L22.6034 3.85589L20.7995 3.27989H20.7891L19.6486 4.47989L16.7872 7.47989H9.50903L9.37425 7.31789L7.05188 4.47989L6.06695 3.27989L5.09239 2.07989H1.70215V3.27989H3.77569L7.50806 7.83389L6.10842 9.30389C5.94254 9.47189 5.84923 9.66989 5.84923 9.87989C5.84923 10.5399 6.78232 11.0799 7.92277 11.0799H20.364V9.87989H8.35821C8.22343 9.87989 8.09902 9.81389 8.09902 9.72989Z" fill="black"/>
</g>
<defs>
<clipPath id="clip0_44_383">
<rect width="24.8825" height="14.4" fill="white" transform="translate(0.665039 0.879883)"/>
</clipPath>
</defs>
</svg>
