<svg width="35" height="22" viewBox="0 0 35 22" fill="none" xmlns="http://www.w3.org/2000/svg">
<g clip-path="url(#clip0_8_872)">
<path d="M16.2703 8.25002H19.1373V5.50002H23.4377V3.66669H19.1373V0.916687H16.2703V3.66669H11.9699V5.50002H16.2703V8.25002ZM10.5364 16.5C8.95959 16.5 7.6838 17.325 7.6838 18.3334C7.6838 19.3417 8.95959 20.1667 10.5364 20.1667C12.1132 20.1667 13.4034 19.3417 13.4034 18.3334C13.4034 17.325 12.1132 16.5 10.5364 16.5ZM24.8712 16.5C23.2944 16.5 22.0186 17.325 22.0186 18.3334C22.0186 19.3417 23.2944 20.1667 24.8712 20.1667C26.448 20.1667 27.7382 19.3417 27.7382 18.3334C27.7382 17.325 26.448 16.5 24.8712 16.5ZM10.7801 13.5209L10.8231 13.4109L12.1132 11.9167H22.7927C23.8678 11.9167 24.8139 11.5409 25.3013 10.9725L30.8345 4.54669L28.3402 3.66669H28.3259L26.7491 5.50002L22.7927 10.0834H12.7296L12.5433 9.83585L9.3323 5.50002L7.97049 3.66669L6.62302 1.83335H1.93555V3.66669H4.80251L9.96303 10.6242L8.02783 12.87C7.79848 13.1267 7.66946 13.4292 7.66946 13.75C7.66946 14.7584 8.95959 15.5834 10.5364 15.5834H27.7382V13.75H11.1385C10.9521 13.75 10.7801 13.6492 10.7801 13.5209Z" fill="black"/>
</g>
<defs>
<clipPath id="clip0_8_872">
<rect width="34.4035" height="22" fill="white" transform="translate(0.501953)"/>
</clipPath>
</defs>
</svg>
