<svg width="26" height="16" viewBox="0 0 26 16" fill="none" xmlns="http://www.w3.org/2000/svg">
<path d="M12.064 6.27986H14.1375V4.47986H17.2478V3.27986H14.1375V1.47986H12.064V3.27986H8.95368V4.47986H12.064V6.27986ZM7.91691 11.6799C6.77646 11.6799 5.85374 12.2199 5.85374 12.8799C5.85374 13.5399 6.77646 14.0799 7.91691 14.0799C9.05736 14.0799 9.99045 13.5399 9.99045 12.8799C9.99045 12.2199 9.05736 11.6799 7.91691 11.6799ZM18.2846 11.6799C17.1442 11.6799 16.2214 12.2199 16.2214 12.8799C16.2214 13.5399 17.1442 14.0799 18.2846 14.0799C19.4251 14.0799 20.3581 13.5399 20.3581 12.8799C20.3581 12.2199 19.4251 11.6799 18.2846 11.6799ZM8.09316 9.72986L8.12426 9.65786L9.05736 8.67986H16.7813C17.5589 8.67986 18.2431 8.43386 18.5956 8.06186L22.5976 3.85586L20.7936 3.27986H20.7832L19.6428 4.47986L16.7813 7.47986H9.50317L9.36839 7.31786L7.04602 4.47986L6.06109 3.27986L5.08653 2.07986H1.69629V3.27986H3.76983L7.5022 7.83386L6.10256 9.30386C5.93668 9.47186 5.84337 9.66986 5.84337 9.87986C5.84337 10.5399 6.77646 11.0799 7.91691 11.0799H20.3581V9.87986H8.35235C8.21757 9.87986 8.09316 9.81386 8.09316 9.72986Z" fill="black"/>
</svg>
