<svg width="26" height="16" viewBox="0 0 26 16" fill="none" xmlns="http://www.w3.org/2000/svg">
<path d="M12.4009 6.27986H14.4744V4.47986H17.5848V3.27986H14.4744V1.47986H12.4009V3.27986H9.29059V4.47986H12.4009V6.27986ZM8.25382 11.6799C7.11338 11.6799 6.19065 12.2199 6.19065 12.8799C6.19065 13.5399 7.11338 14.0799 8.25382 14.0799C9.39427 14.0799 10.3274 13.5399 10.3274 12.8799C10.3274 12.2199 9.39427 11.6799 8.25382 11.6799ZM18.6215 11.6799C17.4811 11.6799 16.5584 12.2199 16.5584 12.8799C16.5584 13.5399 17.4811 14.0799 18.6215 14.0799C19.762 14.0799 20.6951 13.5399 20.6951 12.8799C20.6951 12.2199 19.762 11.6799 18.6215 11.6799ZM8.43007 9.72986L8.46118 9.65786L9.39427 8.67986H17.1182C17.8958 8.67986 18.5801 8.43386 18.9326 8.06186L22.9345 3.85586L21.1305 3.27986H21.1201L19.9797 4.47986L17.1182 7.47986H9.84008L9.7053 7.31786L7.38294 4.47986L6.39801 3.27986L5.42344 2.07986H2.0332V3.27986H4.10674L7.83912 7.83386L6.43948 9.30386C6.27359 9.47186 6.18028 9.66986 6.18028 9.87986C6.18028 10.5399 7.11338 11.0799 8.25382 11.0799H20.6951V9.87986H8.68927C8.55449 9.87986 8.43007 9.81386 8.43007 9.72986Z" fill="black"/>
</svg>
