<svg width="35" height="22" viewBox="0 0 35 22" fill="none" xmlns="http://www.w3.org/2000/svg">
<g clip-path="url(#clip0_8_709)">
<path d="M15.7445 8.25002H18.5582V5.50002H22.7786V3.66669H18.5582V0.916687H15.7445V3.66669H11.524V5.50002H15.7445V8.25002ZM10.1172 16.5C8.56971 16.5 7.31764 17.325 7.31764 18.3334C7.31764 19.3417 8.56971 20.1667 10.1172 20.1667C11.6647 20.1667 12.9309 19.3417 12.9309 18.3334C12.9309 17.325 11.6647 16.5 10.1172 16.5ZM24.1855 16.5C22.638 16.5 21.3859 17.325 21.3859 18.3334C21.3859 19.3417 22.638 20.1667 24.1855 20.1667C25.733 20.1667 26.9991 19.3417 26.9991 18.3334C26.9991 17.325 25.733 16.5 24.1855 16.5ZM10.3564 13.5209L10.3986 13.4109L11.6647 11.9167H22.1456C23.2007 11.9167 24.1292 11.5409 24.6075 10.9725L30.0379 4.54669L27.59 3.66669H27.5759L26.0284 5.50002L22.1456 10.0834H12.2697L12.0868 9.83585L8.93548 5.50002L7.599 3.66669L6.27659 1.83335H1.67627V3.66669H4.48992L9.55449 10.6242L7.65527 12.87C7.43018 13.1267 7.30357 13.4292 7.30357 13.75C7.30357 14.7584 8.56971 15.5834 10.1172 15.5834H26.9991V13.75H10.7081C10.5252 13.75 10.3564 13.6492 10.3564 13.5209Z" fill="black"/>
</g>
<defs>
<clipPath id="clip0_8_709">
<rect width="33.7638" height="22" fill="white" transform="translate(0.269531)"/>
</clipPath>
</defs>
</svg>
