<svg width="35" height="22" viewBox="0 0 35 22" fill="none" xmlns="http://www.w3.org/2000/svg">
<g clip-path="url(#clip0_8_858)">
<path d="M15.7597 8.25001H18.5733V5.50001H22.7938V3.66667H18.5733V0.916672H15.7597V3.66667H11.5392V5.50001H15.7597V8.25001ZM10.1324 16.5C8.58485 16.5 7.33277 17.325 7.33277 18.3333C7.33277 19.3417 8.58485 20.1667 10.1324 20.1667C11.6799 20.1667 12.946 19.3417 12.946 18.3333C12.946 17.325 11.6799 16.5 10.1324 16.5ZM24.2006 16.5C22.6531 16.5 21.401 17.325 21.401 18.3333C21.401 19.3417 22.6531 20.1667 24.2006 20.1667C25.7481 20.1667 27.0142 19.3417 27.0142 18.3333C27.0142 17.325 25.7481 16.5 24.2006 16.5ZM10.3715 13.5208L10.4137 13.4108L11.6799 11.9167H22.1607C23.2158 11.9167 24.1443 11.5408 24.6226 10.9725L30.053 4.54667L27.6051 3.66667H27.591L26.0435 5.50001L22.1607 10.0833H12.2848L12.1019 9.83584L8.95062 5.50001L7.61414 3.66667L6.29172 1.83334H1.69141V3.66667H4.50506L9.56962 10.6242L7.67041 12.87C7.44532 13.1267 7.3187 13.4292 7.3187 13.75C7.3187 14.7583 8.58485 15.5833 10.1324 15.5833H27.0142V13.75H10.7232C10.5403 13.75 10.3715 13.6492 10.3715 13.5208Z" fill="black"/>
</g>
<defs>
<clipPath id="clip0_8_858">
<rect width="33.7638" height="22" fill="white" transform="translate(0.28418)"/>
</clipPath>
</defs>
</svg>
