<svg width="35" height="22" viewBox="0 0 35 22" fill="none" xmlns="http://www.w3.org/2000/svg">
<g clip-path="url(#clip0_8_811)">
<path d="M15.9589 8.25002H18.7725V5.50002H22.993V3.66669H18.7725V0.916687H15.9589V3.66669H11.7384V5.50002H15.9589V8.25002ZM10.3316 16.5C8.78406 16.5 7.53199 17.325 7.53199 18.3334C7.53199 19.3417 8.78406 20.1667 10.3316 20.1667C11.8791 20.1667 13.1452 19.3417 13.1452 18.3334C13.1452 17.325 11.8791 16.5 10.3316 16.5ZM24.3998 16.5C22.8523 16.5 21.6002 17.325 21.6002 18.3334C21.6002 19.3417 22.8523 20.1667 24.3998 20.1667C25.9473 20.1667 27.2135 19.3417 27.2135 18.3334C27.2135 17.325 25.9473 16.5 24.3998 16.5ZM10.5707 13.5209L10.6129 13.4109L11.8791 11.9167H22.3599C23.415 11.9167 24.3435 11.5409 24.8219 10.9725L30.2522 4.54669L27.8043 3.66669H27.7903L26.2428 5.50002L22.3599 10.0834H12.484L12.3011 9.83585L9.14984 5.50002L7.81336 3.66669L6.49094 1.83335H1.89062V3.66669H4.70427L9.76884 10.6242L7.86963 12.87C7.64454 13.1267 7.51792 13.4292 7.51792 13.75C7.51792 14.7584 8.78406 15.5834 10.3316 15.5834H27.2135V13.75H10.9224C10.7396 13.75 10.5707 13.6492 10.5707 13.5209Z" fill="black"/>
</g>
<defs>
<clipPath id="clip0_8_811">
<rect width="33.7638" height="22" fill="white" transform="translate(0.483398)"/>
</clipPath>
</defs>
</svg>
