<svg width="35" height="22" viewBox="0 0 35 22" fill="none" xmlns="http://www.w3.org/2000/svg">
<g clip-path="url(#clip0_8_1060)">
<path d="M15.8427 8.24999H18.6563V5.49999H22.8768V3.66666H18.6563V0.916656H15.8427V3.66666H11.6222V5.49999H15.8427V8.24999ZM10.2154 16.5C8.66785 16.5 7.41578 17.325 7.41578 18.3333C7.41578 19.3417 8.66785 20.1667 10.2154 20.1667C11.7629 20.1667 13.029 19.3417 13.029 18.3333C13.029 17.325 11.7629 16.5 10.2154 16.5ZM24.2836 16.5C22.7361 16.5 21.484 17.325 21.484 18.3333C21.484 19.3417 22.7361 20.1667 24.2836 20.1667C25.8311 20.1667 27.0973 19.3417 27.0973 18.3333C27.0973 17.325 25.8311 16.5 24.2836 16.5ZM10.4545 13.5208L10.4967 13.4108L11.7629 11.9167H22.2437C23.2988 11.9167 24.2273 11.5408 24.7057 10.9725L30.136 4.54666L27.6881 3.66666H27.6741L26.1265 5.49999L22.2437 10.0833H12.3678L12.1849 9.83582L9.03363 5.49999L7.69714 3.66666L6.37473 1.83332H1.77441V3.66666H4.58806L9.65263 10.6242L7.75342 12.87C7.52833 13.1267 7.40171 13.4292 7.40171 13.75C7.40171 14.7583 8.66785 15.5833 10.2154 15.5833H27.0973V13.75H10.8062C10.6233 13.75 10.4545 13.6492 10.4545 13.5208Z" fill="black"/>
</g>
<defs>
<clipPath id="clip0_8_1060">
<rect width="33.7638" height="22" fill="white" transform="translate(0.367188)"/>
</clipPath>
</defs>
</svg>
