<svg width="30" height="19" viewBox="0 0 30 19" fill="none" xmlns="http://www.w3.org/2000/svg">
<path d="M15 19L12.825 17.7C10.3 16.1833 8.2125 14.875 6.5625 13.775C4.9125 12.675 3.6 11.6875 2.625 10.8125C1.65 9.93749 0.96875 9.13333 0.58125 8.39999C0.19375 7.66666 0 6.91666 0 6.14999C0 4.58333 0.7875 3.27499 2.3625 2.22499C3.9375 1.17499 5.9 0.649994 8.25 0.649994C9.55 0.649994 10.7875 0.833327 11.9625 1.19999C13.1375 1.56666 14.15 2.08333 15 2.74999C15.85 2.08333 16.8625 1.56666 18.0375 1.19999C19.2125 0.833327 20.45 0.649994 21.75 0.649994C24.1 0.649994 26.0625 1.17499 27.6375 2.22499C29.2125 3.27499 30 4.58333 30 6.14999C30 6.91666 29.8063 7.66666 29.4188 8.39999C29.0313 9.13333 28.35 9.93749 27.375 10.8125C26.4 11.6875 25.0875 12.675 23.4375 13.775C21.7875 14.875 19.7 16.1833 17.175 17.7L15 19ZM15 16.3C17.4 14.8667 19.375 13.6375 20.925 12.6125C22.475 11.5875 23.7 10.6958 24.6 9.93749C25.5 9.17916 26.125 8.50416 26.475 7.91249C26.825 7.32083 27 6.73333 27 6.14999C27 5.14999 26.5 4.31666 25.5 3.64999C24.5 2.98333 23.25 2.64999 21.75 2.64999C20.575 2.64999 19.4875 2.87083 18.4875 3.31249C17.4875 3.75416 16.8 4.31666 16.425 4.99999H13.575C13.2 4.31666 12.5125 3.75416 11.5125 3.31249C10.5125 2.87083 9.425 2.64999 8.25 2.64999C6.75 2.64999 5.5 2.98333 4.5 3.64999C3.5 4.31666 3 5.14999 3 6.14999C3 6.73333 3.175 7.32083 3.525 7.91249C3.875 8.50416 4.5 9.17916 5.4 9.93749C6.3 10.6958 7.525 11.5875 9.075 12.6125C10.625 13.6375 12.6 14.8667 15 16.3Z" fill="#FD3737"/>
</svg>
