<svg width="30" height="19" viewBox="0 0 30 19" fill="none" xmlns="http://www.w3.org/2000/svg">
<path d="M15 19L12.825 17.7C10.3 16.1834 8.2125 14.875 6.5625 13.775C4.9125 12.675 3.6 11.6875 2.625 10.8125C1.65 9.93752 0.96875 9.13336 0.58125 8.40002C0.19375 7.66669 0 6.91669 0 6.15002C0 4.58336 0.7875 3.27502 2.3625 2.22502C3.9375 1.17502 5.9 0.650024 8.25 0.650024C9.55 0.650024 10.7875 0.833358 11.9625 1.20002C13.1375 1.56669 14.15 2.08336 15 2.75002C15.85 2.08336 16.8625 1.56669 18.0375 1.20002C19.2125 0.833358 20.45 0.650024 21.75 0.650024C24.1 0.650024 26.0625 1.17502 27.6375 2.22502C29.2125 3.27502 30 4.58336 30 6.15002C30 6.91669 29.8063 7.66669 29.4188 8.40002C29.0313 9.13336 28.35 9.93752 27.375 10.8125C26.4 11.6875 25.0875 12.675 23.4375 13.775C21.7875 14.875 19.7 16.1834 17.175 17.7L15 19ZM15 16.3C17.4 14.8667 19.375 13.6375 20.925 12.6125C22.475 11.5875 23.7 10.6959 24.6 9.93752C25.5 9.17919 26.125 8.50419 26.475 7.91252C26.825 7.32086 27 6.73336 27 6.15002C27 5.15002 26.5 4.31669 25.5 3.65002C24.5 2.98336 23.25 2.65002 21.75 2.65002C20.575 2.65002 19.4875 2.87086 18.4875 3.31252C17.4875 3.75419 16.8 4.31669 16.425 5.00002H13.575C13.2 4.31669 12.5125 3.75419 11.5125 3.31252C10.5125 2.87086 9.425 2.65002 8.25 2.65002C6.75 2.65002 5.5 2.98336 4.5 3.65002C3.5 4.31669 3 5.15002 3 6.15002C3 6.73336 3.175 7.32086 3.525 7.91252C3.875 8.50419 4.5 9.17919 5.4 9.93752C6.3 10.6959 7.525 11.5875 9.075 12.6125C10.625 13.6375 12.6 14.8667 15 16.3Z" fill="#FD3737"/>
</svg>
