<svg width="36" height="24" viewBox="0 0 36 24" fill="none" xmlns="http://www.w3.org/2000/svg">
<mask id="mask0_8_847" style="mask-type:alpha" maskUnits="userSpaceOnUse" x="0" y="0" width="36" height="24">
<rect width="35.9556" height="24" fill="#D9D9D9"/>
</mask>
<g mask="url(#mask0_8_847)">
<path d="M17.9776 21L15.8053 19.7C13.2834 18.1833 11.1985 16.875 9.5505 15.775C7.90253 14.675 6.59165 13.6875 5.61786 12.8125C4.64406 11.9375 3.96365 11.1333 3.57663 10.4C3.1896 9.66666 2.99609 8.91666 2.99609 8.14999C2.99609 6.58333 3.78262 5.27499 5.35568 4.22499C6.92874 3.17499 8.88881 2.64999 11.2359 2.64999C12.5343 2.64999 13.7703 2.83333 14.9438 3.19999C16.1174 3.56666 17.1286 4.08333 17.9776 4.74999C18.8265 4.08333 19.8378 3.56666 21.0113 3.19999C22.1849 2.83333 23.4209 2.64999 24.7193 2.64999C27.0664 2.64999 29.0264 3.17499 30.5995 4.22499C32.1726 5.27499 32.9591 6.58333 32.9591 8.14999C32.9591 8.91666 32.7656 9.66666 32.3786 10.4C31.9915 11.1333 31.3111 11.9375 30.3373 12.8125C29.3635 13.6875 28.0526 14.675 26.4047 15.775C24.7567 16.875 22.6718 18.1833 20.1499 19.7L17.9776 21ZM17.9776 18.3C20.3746 16.8667 22.3472 15.6375 23.8953 14.6125C25.4434 13.5875 26.6669 12.6958 27.5657 11.9375C28.4646 11.1792 29.0889 10.5042 29.4384 9.91249C29.788 9.32083 29.9628 8.73333 29.9628 8.14999C29.9628 7.14999 29.4634 6.31666 28.4646 5.64999C27.4659 4.98333 26.2174 4.64999 24.7193 4.64999C23.5457 4.64999 22.4596 4.87083 21.4608 5.31249C20.462 5.75416 19.7754 6.31666 19.4008 6.99999H16.5543C16.1798 6.31666 15.4932 5.75416 14.4944 5.31249C13.4956 4.87083 12.4095 4.64999 11.2359 4.64999C9.73777 4.64999 8.48931 4.98333 7.49054 5.64999C6.49178 6.31666 5.99239 7.14999 5.99239 8.14999C5.99239 8.73333 6.16718 9.32083 6.51675 9.91249C6.86631 10.5042 7.49054 11.1792 8.38943 11.9375C9.28832 12.6958 10.5118 13.5875 12.0599 14.6125C13.608 15.6375 15.5805 16.8667 17.9776 18.3Z" fill="#FD3737"/>
</g>
</svg>
