<svg width="30" height="19" viewBox="0 0 30 19" fill="none" xmlns="http://www.w3.org/2000/svg">
<path d="M15 19L12.825 17.7C10.3 16.1833 8.2125 14.875 6.5625 13.775C4.9125 12.675 3.6 11.6875 2.625 10.8125C1.65 9.9375 0.96875 9.13334 0.58125 8.4C0.19375 7.66667 0 6.91667 0 6.15C0 4.58333 0.7875 3.275 2.3625 2.225C3.9375 1.175 5.9 0.650002 8.25 0.650002C9.55 0.650002 10.7875 0.833335 11.9625 1.2C13.1375 1.56667 14.15 2.08333 15 2.75C15.85 2.08333 16.8625 1.56667 18.0375 1.2C19.2125 0.833335 20.45 0.650002 21.75 0.650002C24.1 0.650002 26.0625 1.175 27.6375 2.225C29.2125 3.275 30 4.58333 30 6.15C30 6.91667 29.8063 7.66667 29.4188 8.4C29.0313 9.13334 28.35 9.9375 27.375 10.8125C26.4 11.6875 25.0875 12.675 23.4375 13.775C21.7875 14.875 19.7 16.1833 17.175 17.7L15 19ZM15 16.3C17.4 14.8667 19.375 13.6375 20.925 12.6125C22.475 11.5875 23.7 10.6958 24.6 9.9375C25.5 9.17917 26.125 8.50417 26.475 7.9125C26.825 7.32084 27 6.73334 27 6.15C27 5.15 26.5 4.31667 25.5 3.65C24.5 2.98333 23.25 2.65 21.75 2.65C20.575 2.65 19.4875 2.87084 18.4875 3.3125C17.4875 3.75417 16.8 4.31667 16.425 5H13.575C13.2 4.31667 12.5125 3.75417 11.5125 3.3125C10.5125 2.87084 9.425 2.65 8.25 2.65C6.75 2.65 5.5 2.98333 4.5 3.65C3.5 4.31667 3 5.15 3 6.15C3 6.73334 3.175 7.32084 3.525 7.9125C3.875 8.50417 4.5 9.17917 5.4 9.9375C6.3 10.6958 7.525 11.5875 9.075 12.6125C10.625 13.6375 12.6 14.8667 15 16.3Z" fill="#FD3737"/>
</svg>
