<svg width="26" height="19" viewBox="0 0 26 19" fill="none" xmlns="http://www.w3.org/2000/svg">
<path d="M13.1922 19L11.3565 17.7C9.22543 16.1834 7.46358 14.875 6.07098 13.775C4.67838 12.675 3.57063 11.6875 2.74773 10.8125C1.92483 9.93752 1.34985 9.13336 1.0228 8.40002C0.695752 7.66669 0.532227 6.91669 0.532227 6.15002C0.532227 4.58336 1.19688 3.27502 2.52618 2.22502C3.85548 1.17502 5.51183 0.650024 7.49523 0.650024C8.59243 0.650024 9.63688 0.833358 10.6286 1.20002C11.6203 1.56669 12.4748 2.08336 13.1922 2.75002C13.9096 2.08336 14.7642 1.56669 15.7559 1.20002C16.7476 0.833358 17.792 0.650024 18.8892 0.650024C20.8726 0.650024 22.529 1.17502 23.8583 2.22502C25.1876 3.27502 25.8522 4.58336 25.8522 6.15002C25.8522 6.91669 25.6887 7.66669 25.3616 8.40002C25.0346 9.13336 24.4596 9.93752 23.6367 10.8125C22.8138 11.6875 21.7061 12.675 20.3135 13.775C18.9209 14.875 17.159 16.1834 15.0279 17.7L13.1922 19ZM13.1922 16.3C15.2178 14.8667 16.8847 13.6375 18.1929 12.6125C19.5011 11.5875 20.535 10.6959 21.2946 9.93752C22.0542 9.17919 22.5817 8.50419 22.8771 7.91252C23.1725 7.32086 23.3202 6.73336 23.3202 6.15002C23.3202 5.15002 22.8982 4.31669 22.0542 3.65002C21.2102 2.98336 20.1552 2.65002 18.8892 2.65002C17.8975 2.65002 16.9797 2.87086 16.1357 3.31252C15.2917 3.75419 14.7114 4.31669 14.3949 5.00002H11.9895C11.673 4.31669 11.0928 3.75419 10.2488 3.31252C9.40478 2.87086 8.48693 2.65002 7.49523 2.65002C6.22923 2.65002 5.17423 2.98336 4.33023 3.65002C3.48623 4.31669 3.06423 5.15002 3.06423 6.15002C3.06423 6.73336 3.21193 7.32086 3.50733 7.91252C3.80273 8.50419 4.33023 9.17919 5.08983 9.93752C5.84943 10.6959 6.88333 11.5875 8.19153 12.6125C9.49973 13.6375 11.1666 14.8667 13.1922 16.3Z" fill="#FD3737"/>
</svg>
