<svg width="36" height="24" viewBox="0 0 36 24" fill="none" xmlns="http://www.w3.org/2000/svg">
<mask id="mask0_8_1101" style="mask-type:alpha" maskUnits="userSpaceOnUse" x="0" y="0" width="36" height="24">
<rect width="36" height="24" fill="#D9D9D9"/>
</mask>
<g mask="url(#mask0_8_1101)">
<path d="M18 21L15.825 19.7C13.3 18.1833 11.2125 16.875 9.5625 15.775C7.9125 14.675 6.6 13.6875 5.625 12.8125C4.65 11.9375 3.96875 11.1333 3.58125 10.4C3.19375 9.66666 3 8.91666 3 8.14999C3 6.58333 3.7875 5.27499 5.3625 4.22499C6.9375 3.17499 8.9 2.64999 11.25 2.64999C12.55 2.64999 13.7875 2.83333 14.9625 3.19999C16.1375 3.56666 17.15 4.08333 18 4.74999C18.85 4.08333 19.8625 3.56666 21.0375 3.19999C22.2125 2.83333 23.45 2.64999 24.75 2.64999C27.1 2.64999 29.0625 3.17499 30.6375 4.22499C32.2125 5.27499 33 6.58333 33 8.14999C33 8.91666 32.8063 9.66666 32.4188 10.4C32.0313 11.1333 31.35 11.9375 30.375 12.8125C29.4 13.6875 28.0875 14.675 26.4375 15.775C24.7875 16.875 22.7 18.1833 20.175 19.7L18 21ZM18 18.3C20.4 16.8667 22.375 15.6375 23.925 14.6125C25.475 13.5875 26.7 12.6958 27.6 11.9375C28.5 11.1792 29.125 10.5042 29.475 9.91249C29.825 9.32083 30 8.73333 30 8.14999C30 7.14999 29.5 6.31666 28.5 5.64999C27.5 4.98333 26.25 4.64999 24.75 4.64999C23.575 4.64999 22.4875 4.87083 21.4875 5.31249C20.4875 5.75416 19.8 6.31666 19.425 6.99999H16.575C16.2 6.31666 15.5125 5.75416 14.5125 5.31249C13.5125 4.87083 12.425 4.64999 11.25 4.64999C9.75 4.64999 8.5 4.98333 7.5 5.64999C6.5 6.31666 6 7.14999 6 8.14999C6 8.73333 6.175 9.32083 6.525 9.91249C6.875 10.5042 7.5 11.1792 8.4 11.9375C9.3 12.6958 10.525 13.5875 12.075 14.6125C13.625 15.6375 15.6 16.8667 18 18.3Z" fill="#FD3737"/>
</g>
</svg>
