<svg width="27" height="19" viewBox="0 0 27 19" fill="none" xmlns="http://www.w3.org/2000/svg">
<path d="M13.5301 19L11.6944 17.7C9.56332 16.1834 7.80147 14.875 6.40887 13.775C5.01627 12.675 3.90852 11.6875 3.08562 10.8125C2.26272 9.93752 1.68774 9.13336 1.36069 8.40002C1.03364 7.66669 0.870117 6.91669 0.870117 6.15002C0.870117 4.58336 1.53477 3.27502 2.86407 2.22502C4.19337 1.17502 5.84972 0.650024 7.83312 0.650024C8.93032 0.650024 9.97477 0.833358 10.9665 1.20002C11.9582 1.56669 12.8127 2.08336 13.5301 2.75002C14.2475 2.08336 15.1021 1.56669 16.0938 1.20002C17.0855 0.833358 18.1299 0.650024 19.2271 0.650024C21.2105 0.650024 22.8669 1.17502 24.1962 2.22502C25.5255 3.27502 26.1901 4.58336 26.1901 6.15002C26.1901 6.91669 26.0266 7.66669 25.6995 8.40002C25.3725 9.13336 24.7975 9.93752 23.9746 10.8125C23.1517 11.6875 22.044 12.675 20.6514 13.775C19.2588 14.875 17.4969 16.1834 15.3658 17.7L13.5301 19ZM13.5301 16.3C15.5557 14.8667 17.2226 13.6375 18.5308 12.6125C19.839 11.5875 20.8729 10.6959 21.6325 9.93752C22.3921 9.17919 22.9196 8.50419 23.215 7.91252C23.5104 7.32086 23.6581 6.73336 23.6581 6.15002C23.6581 5.15002 23.2361 4.31669 22.3921 3.65002C21.5481 2.98336 20.4931 2.65002 19.2271 2.65002C18.2354 2.65002 17.3176 2.87086 16.4736 3.31252C15.6296 3.75419 15.0493 4.31669 14.7328 5.00002H12.3274C12.0109 4.31669 11.4307 3.75419 10.5867 3.31252C9.74267 2.87086 8.82482 2.65002 7.83312 2.65002C6.56712 2.65002 5.51212 2.98336 4.66812 3.65002C3.82412 4.31669 3.40212 5.15002 3.40212 6.15002C3.40212 6.73336 3.54982 7.32086 3.84522 7.91252C4.14062 8.50419 4.66812 9.17919 5.42772 9.93752C6.18732 10.6959 7.22122 11.5875 8.52942 12.6125C9.83762 13.6375 11.5045 14.8667 13.5301 16.3Z" fill="#FD3737"/>
</svg>
