<svg width="31" height="19" viewBox="0 0 31 19" fill="none" xmlns="http://www.w3.org/2000/svg">
<path d="M15.9776 19L13.8053 17.7C11.2834 16.1833 9.19846 14.875 7.5505 13.775C5.90253 12.675 4.59165 11.6875 3.61786 10.8125C2.64406 9.93749 1.96365 9.13333 1.57663 8.39999C1.1896 7.66666 0.996094 6.91666 0.996094 6.14999C0.996094 4.58333 1.78262 3.27499 3.35568 2.22499C4.92874 1.17499 6.88881 0.649994 9.23592 0.649994C10.5343 0.649994 11.7703 0.833327 12.9438 1.19999C14.1174 1.56666 15.1286 2.08333 15.9776 2.74999C16.8265 2.08333 17.8378 1.56666 19.0113 1.19999C20.1849 0.833327 21.4209 0.649994 22.7193 0.649994C25.0664 0.649994 27.0264 1.17499 28.5995 2.22499C30.1726 3.27499 30.9591 4.58333 30.9591 6.14999C30.9591 6.91666 30.7656 7.66666 30.3786 8.39999C29.9915 9.13333 29.3111 9.93749 28.3373 10.8125C27.3635 11.6875 26.0526 12.675 24.4047 13.775C22.7567 14.875 20.6718 16.1833 18.1499 17.7L15.9776 19ZM15.9776 16.3C18.3746 14.8667 20.3472 13.6375 21.8953 12.6125C23.4434 11.5875 24.6669 10.6958 25.5657 9.93749C26.4646 9.17916 27.0889 8.50416 27.4384 7.91249C27.788 7.32083 27.9628 6.73333 27.9628 6.14999C27.9628 5.14999 27.4634 4.31666 26.4646 3.64999C25.4659 2.98333 24.2174 2.64999 22.7193 2.64999C21.5457 2.64999 20.4596 2.87083 19.4608 3.31249C18.462 3.75416 17.7754 4.31666 17.4008 4.99999H14.5543C14.1798 4.31666 13.4932 3.75416 12.4944 3.31249C11.4956 2.87083 10.4095 2.64999 9.23592 2.64999C7.73777 2.64999 6.48931 2.98333 5.49054 3.64999C4.49178 4.31666 3.99239 5.14999 3.99239 6.14999C3.99239 6.73333 4.16718 7.32083 4.51675 7.91249C4.86631 8.50416 5.49054 9.17916 6.38943 9.93749C7.28832 10.6958 8.51181 11.5875 10.0599 12.6125C11.608 13.6375 13.5805 14.8667 15.9776 16.3Z" fill="#FD3737"/>
</svg>
