<svg width="26" height="19" viewBox="0 0 26 19" fill="none" xmlns="http://www.w3.org/2000/svg">
<path d="M13.1922 19L11.3565 17.7C9.22543 16.1833 7.46358 14.875 6.07098 13.775C4.67838 12.675 3.57063 11.6875 2.74773 10.8125C1.92483 9.93749 1.34985 9.13333 1.0228 8.39999C0.695752 7.66666 0.532227 6.91666 0.532227 6.14999C0.532227 4.58333 1.19688 3.27499 2.52618 2.22499C3.85548 1.17499 5.51183 0.649994 7.49523 0.649994C8.59243 0.649994 9.63688 0.833327 10.6286 1.19999C11.6203 1.56666 12.4748 2.08333 13.1922 2.74999C13.9096 2.08333 14.7642 1.56666 15.7559 1.19999C16.7476 0.833327 17.792 0.649994 18.8892 0.649994C20.8726 0.649994 22.529 1.17499 23.8583 2.22499C25.1876 3.27499 25.8522 4.58333 25.8522 6.14999C25.8522 6.91666 25.6887 7.66666 25.3616 8.39999C25.0346 9.13333 24.4596 9.93749 23.6367 10.8125C22.8138 11.6875 21.7061 12.675 20.3135 13.775C18.9209 14.875 17.159 16.1833 15.0279 17.7L13.1922 19ZM13.1922 16.3C15.2178 14.8667 16.8847 13.6375 18.1929 12.6125C19.5011 11.5875 20.535 10.6958 21.2946 9.93749C22.0542 9.17916 22.5817 8.50416 22.8771 7.91249C23.1725 7.32083 23.3202 6.73333 23.3202 6.14999C23.3202 5.14999 22.8982 4.31666 22.0542 3.64999C21.2102 2.98333 20.1552 2.64999 18.8892 2.64999C17.8975 2.64999 16.9797 2.87083 16.1357 3.31249C15.2917 3.75416 14.7114 4.31666 14.3949 4.99999H11.9895C11.673 4.31666 11.0928 3.75416 10.2488 3.31249C9.40478 2.87083 8.48693 2.64999 7.49523 2.64999C6.22923 2.64999 5.17423 2.98333 4.33023 3.64999C3.48623 4.31666 3.06423 5.14999 3.06423 6.14999C3.06423 6.73333 3.21193 7.32083 3.50733 7.91249C3.80273 8.50416 4.33023 9.17916 5.08983 9.93749C5.84943 10.6958 6.88333 11.5875 8.19153 12.6125C9.49973 13.6375 11.1666 14.8667 13.1922 16.3Z" fill="#FD3737"/>
</svg>
