<svg width="148" height="127" viewBox="0 0 148 127" fill="none" xmlns="http://www.w3.org/2000/svg">
<path d="M8.21892 124.538L25.8611 115.805C26.1919 115.641 26.5094 115.466 26.8238 115.272C29.1008 113.871 39.219 107.644 46 103.5C55 98.0001 60.3809 94.1347 68.5 87.5001C75.6931 81.6222 85.2655 72.2177 86.3906 71.1081C86.4649 71.0348 86.5361 70.9624 86.6083 70.8871L101.504 55.3465L117.051 38.4446L144 2L115.496 34.1923L100.607 49.6238C100.514 49.7208 100.423 49.8116 100.327 49.9052C99.0952 51.0951 90.0346 59.8282 83.5 65.5001L82.9922 65.9409C76.3038 71.7469 72.8171 74.7736 65.5 80.0001C58.3413 85.1134 45.2408 93.1326 44.0632 93.8519C44.0001 93.8904 43.9461 93.9225 43.8823 93.9598L25.3211 104.808L3.03644 115.192M9.25547 124.538H7.32197C6.22533 124.538 5.16144 124.165 4.30574 123.479V123.479C3.48236 122.819 2.89816 121.907 2.64268 120.883L2.44075 120.074C2.15135 118.914 2.15135 117.701 2.44075 116.541L3.0365 114.154" stroke="black" stroke-width="4" stroke-linejoin="round"/>
<path d="M71 99C77.316 99 82.7306 101.352 86.3713 103.518C82.7338 105.876 77.1535 109 71 109C67.1634 109 63.8714 107.771 61.0568 106.242C59.6462 105.476 58.3714 104.644 57.2028 103.857C57.0061 103.724 56.8096 103.591 56.6141 103.459C60.0236 101.288 64.7649 99 71 99Z" stroke="black" stroke-width="4"/>
<path d="M49.7282 66.8455C51.4127 60.7583 55.1231 56.167 58.1824 53.236C59.4848 57.3706 61.0071 63.5819 59.366 69.5125C58.3427 73.2102 56.2802 76.0551 54.0564 78.3602C52.942 79.5153 51.8 80.522 50.7295 81.4384C50.5494 81.5925 50.3685 81.7464 50.1885 81.8995C49.0062 78.0346 48.0653 72.8548 49.7282 66.8455Z" stroke="black" stroke-width="4"/>
<path d="M70.6465 51.0863C71.5829 44.8401 74.7112 39.8339 77.3938 36.5547C79.1864 40.5015 81.4483 46.4833 80.536 52.5688C79.9672 56.363 78.2636 59.4364 76.3348 61.9933C75.3681 63.2747 74.3562 64.4121 73.4043 65.4511C73.2441 65.6259 73.0832 65.8005 72.923 65.9742C71.2822 62.2806 69.7221 57.2524 70.6465 51.0863Z" stroke="black" stroke-width="4"/>
<path d="M89.5927 34.1027C90.1544 27.8117 92.9781 22.6276 95.46 19.194C97.4852 23.0268 100.1 28.8628 99.5531 34.9919C99.2119 38.8133 97.695 41.9829 95.9223 44.6505C95.0339 45.9874 94.0917 47.1831 93.2035 48.2772C93.0541 48.4612 92.9039 48.6451 92.7544 48.8281C90.8959 45.239 89.0383 40.313 89.5927 34.1027Z" stroke="black" stroke-width="4"/>
<path d="M89.773 83.0276C96.0825 82.7403 101.599 84.8431 105.334 86.842C101.808 89.363 96.3751 92.7373 90.228 93.0173C86.3954 93.1918 83.0509 92.1138 80.1696 90.7149C78.7257 90.0139 77.4144 89.2407 76.211 88.5073C76.0086 88.3839 75.8062 88.2597 75.6049 88.1361C78.9122 85.813 83.5444 83.3113 89.773 83.0276Z" stroke="black" stroke-width="4"/>
<path d="M107.931 68.007C114.247 67.9198 119.693 70.1963 123.363 72.3126C119.759 74.7206 114.222 77.9211 108.069 78.0061C104.233 78.0591 100.924 76.8755 98.0889 75.3861C96.668 74.6397 95.3818 73.8253 94.2023 73.0541C94.0039 72.9244 93.8056 72.7938 93.6082 72.6639C96.9875 70.4468 101.697 68.0932 107.931 68.007Z" stroke="black" stroke-width="4"/>
<path d="M123.11 52.9269C129.393 52.283 135.019 54.0702 138.862 55.8545C135.484 58.571 130.251 62.2474 124.13 62.8748C120.313 63.2659 116.913 62.3788 113.957 61.1453C112.476 60.5271 111.123 59.8293 109.88 59.1652C109.671 59.0535 109.462 58.9409 109.254 58.8289C112.424 56.3224 116.908 53.5626 123.11 52.9269Z" stroke="black" stroke-width="4"/>
<path d="M131.29 34.8456C135.59 33.5888 139.991 34.744 143.128 36.0881C142.422 37.2173 141.548 38.525 140.474 39.8049C138.708 41.9109 136.577 43.7187 134.095 44.4442C131.647 45.1593 129.172 44.728 126.795 43.8581C125.612 43.4249 124.497 42.8997 123.452 42.3865C123.27 42.2972 123.086 42.2062 122.903 42.1151C122.827 42.0778 122.752 42.0404 122.676 42.0031C124.454 39.2028 127.056 36.0827 131.29 34.8456Z" stroke="black" stroke-width="4"/>
<path d="M106.92 18.1032C107.232 13.6335 109.842 9.90644 112.19 7.43045C113.005 8.48375 113.928 9.75732 114.756 11.2082C116.119 13.5955 117.076 16.2208 116.896 18.8007C116.718 21.344 115.455 23.5163 113.815 25.4438C112.998 26.4036 112.119 27.2671 111.275 28.0695C111.128 28.2091 110.979 28.3498 110.83 28.4907C110.769 28.5484 110.708 28.6062 110.647 28.664C108.637 26.0254 106.612 22.5028 106.92 18.1032Z" stroke="black" stroke-width="4"/>
</svg>
