<svg width="146" height="127" viewBox="0 0 146 127" fill="none" xmlns="http://www.w3.org/2000/svg">
<path d="M8.21892 124.538L25.8611 115.805C26.1919 115.641 26.5094 115.466 26.8238 115.272C29.1008 113.871 39.219 107.644 46 103.5C55 98.0001 60.3809 94.1347 68.5 87.5001C75.6931 81.6222 85.2655 72.2177 86.3906 71.1081C86.4649 71.0348 86.5361 70.9624 86.6083 70.8871L101.504 55.3465L117.051 38.4446L144 2L115.496 34.1923L100.607 49.6238C100.514 49.7208 100.423 49.8116 100.327 49.9052C99.0952 51.0951 90.0346 59.8282 83.5 65.5001L82.9922 65.9409C76.3038 71.7469 72.8171 74.7736 65.5 80.0001C58.3413 85.1134 45.2408 93.1326 44.0632 93.8519C44.0001 93.8904 43.9461 93.9225 43.8823 93.9598L25.3211 104.808L3.03644 115.192M9.25547 124.538H7.32197C6.22533 124.538 5.16144 124.165 4.30574 123.479V123.479C3.48236 122.819 2.89816 121.907 2.64268 120.883L2.44075 120.074C2.15135 118.914 2.15135 117.701 2.44075 116.541L3.0365 114.154" stroke="black" stroke-width="4" stroke-linejoin="round"/>
<path d="M71 99.0001C77.316 99.0001 82.7306 101.352 86.3713 103.518C82.7338 105.876 77.1535 109 71 109C67.1634 109 63.8714 107.771 61.0568 106.242C59.6462 105.477 58.3714 104.644 57.2028 103.857C57.0061 103.725 56.8096 103.591 56.6141 103.459C60.0236 101.288 64.7649 99.0001 71 99.0001Z" stroke="black" stroke-width="4"/>
<path d="M49.7282 66.8452C51.4127 60.758 55.1231 56.1666 58.1824 53.2357C59.4848 57.3703 61.0071 63.5816 59.366 69.5122C58.3427 73.2098 56.2802 76.0547 54.0564 78.3598C52.942 79.515 51.8 80.5217 50.7295 81.438C50.5494 81.5922 50.3685 81.746 50.1885 81.8991C49.0062 78.0342 48.0653 72.8544 49.7282 66.8452Z" stroke="black" stroke-width="4"/>
<path d="M70.6465 51.0865C71.5829 44.8403 74.7112 39.8341 77.3938 36.5549C79.1864 40.5018 81.4483 46.4836 80.536 52.5691C79.9672 56.3633 78.2636 59.4366 76.3348 61.9936C75.3681 63.275 74.3562 64.4123 73.4043 65.4513C73.2441 65.6261 73.0832 65.8007 72.923 65.9745C71.2822 62.2808 69.7221 57.2527 70.6465 51.0865Z" stroke="black" stroke-width="4"/>
<path d="M89.5927 34.1027C90.1544 27.8117 92.9781 22.6276 95.46 19.194C97.4852 23.0268 100.1 28.8628 99.5531 34.9919C99.2119 38.8133 97.695 41.9829 95.9223 44.6505C95.0339 45.9874 94.0917 47.1831 93.2035 48.2772C93.0541 48.4612 92.9039 48.6451 92.7544 48.8281C90.8959 45.239 89.0383 40.313 89.5927 34.1027Z" stroke="black" stroke-width="4"/>
<path d="M89.773 83.028C96.0825 82.7407 101.599 84.8435 105.334 86.8423C101.808 89.3633 96.3751 92.7377 90.228 93.0177C86.3954 93.1922 83.0509 92.1141 80.1696 90.7153C78.7257 90.0143 77.4144 89.241 76.211 88.5076C76.0086 88.3843 75.8062 88.2601 75.6049 88.1364C78.9122 85.8133 83.5444 83.3117 89.773 83.028Z" stroke="black" stroke-width="4"/>
<path d="M107.931 68.0075C114.246 67.9202 119.693 70.1968 123.363 72.313C119.759 74.721 114.222 77.9215 108.069 78.0065C104.233 78.0595 100.924 76.876 98.0887 75.3865C96.6677 74.6401 95.3816 73.8257 94.2021 73.0545C94.0037 72.9248 93.8053 72.7943 93.608 72.6643C96.9872 70.4472 101.696 68.0936 107.931 68.0075Z" stroke="black" stroke-width="4"/>
<path d="M123.11 52.9268C129.393 52.2828 135.019 54.0701 138.862 55.8544C135.484 58.5709 130.251 62.2473 124.13 62.8747C120.313 63.2658 116.913 62.3787 113.957 61.1452C112.476 60.527 111.123 59.8292 109.88 59.1651C109.671 59.0534 109.462 58.9408 109.254 58.8288C112.424 56.3222 116.908 53.5625 123.11 52.9268Z" stroke="black" stroke-width="4"/>
<path d="M131.29 34.8461C135.59 33.5893 139.991 34.7445 143.128 36.0886C142.422 37.2178 141.548 38.5254 140.474 39.8054C138.708 41.9114 136.577 43.7192 134.095 44.4446C131.647 45.1598 129.172 44.7285 126.795 43.8586C125.612 43.4254 124.497 42.9002 123.452 42.387C123.27 42.2977 123.086 42.2067 122.903 42.1156C122.827 42.0783 122.752 42.0409 122.676 42.0036C124.454 39.2033 127.056 36.0831 131.29 34.8461Z" stroke="black" stroke-width="4"/>
<path d="M106.92 18.1031C107.232 13.6334 109.842 9.90632 112.19 7.43033C113.005 8.48362 113.928 9.7572 114.756 11.2081C116.119 13.5953 117.076 16.2207 116.896 18.8006C116.718 21.3439 115.455 23.5161 113.815 25.4437C112.998 26.4035 112.119 27.267 111.275 28.0694C111.128 28.209 110.979 28.3497 110.83 28.4905C110.769 28.5483 110.708 28.6061 110.647 28.6639C108.637 26.0252 106.612 22.5026 106.92 18.1031Z" stroke="black" stroke-width="4"/>
</svg>
