<svg width="70" height="70" viewBox="0 0 70 70" fill="none" xmlns="http://www.w3.org/2000/svg">
<path d="M52.5001 17.4999H46.6667C46.6667 11.0541 41.4459 5.83325 35.0001 5.83325C28.5542 5.83325 23.3334 11.0541 23.3334 17.4999H17.5001C14.2917 17.4999 11.6667 20.1249 11.6667 23.3333V58.3332C11.6667 61.5416 14.2917 64.1666 17.5001 64.1666H52.5001C55.7084 64.1666 58.3334 61.5416 58.3334 58.3332V23.3333C58.3334 20.1249 55.7084 17.4999 52.5001 17.4999ZM29.1667 29.1666C29.1667 30.7708 27.8542 32.0833 26.2501 32.0833C24.6459 32.0833 23.3334 30.7708 23.3334 29.1666V23.3333H29.1667V29.1666ZM35.0001 11.6666C38.2084 11.6666 40.8334 14.2916 40.8334 17.4999H29.1667C29.1667 14.2916 31.7917 11.6666 35.0001 11.6666ZM46.6667 29.1666C46.6667 30.7708 45.3542 32.0833 43.7501 32.0833C42.1459 32.0833 40.8334 30.7708 40.8334 29.1666V23.3333H46.6667V29.1666Z" fill="#48742C"/>
</svg>
