<svg width="172" height="60" viewBox="0 0 172 60" fill="none" xmlns="http://www.w3.org/2000/svg">
<path d="M140.054 22.8571H146.312V14.2857H155.698V8.57143H146.312V0H140.054V8.57143H130.668V14.2857H140.054V22.8571ZM127.539 48.5714C124.098 48.5714 121.313 51.1429 121.313 54.2857C121.313 57.4286 124.098 60 127.539 60C130.981 60 133.797 57.4286 133.797 54.2857C133.797 51.1429 130.981 48.5714 127.539 48.5714ZM158.827 48.5714C155.385 48.5714 152.601 51.1429 152.601 54.2857C152.601 57.4286 155.385 60 158.827 60C162.269 60 165.085 57.4286 165.085 54.2857C165.085 51.1429 162.269 48.5714 158.827 48.5714ZM128.071 39.2857L128.165 38.9429L130.981 34.2857H154.29C156.637 34.2857 158.702 33.1143 159.766 31.3429L171.843 11.3143L166.399 8.57143H166.367L162.926 14.2857L154.29 28.5714H132.326L131.92 27.8L124.911 14.2857L121.939 8.57143L118.998 2.85714H108.767V8.57143H115.024L126.288 30.2571L122.064 37.2571C121.563 38.0571 121.282 39 121.282 40C121.282 43.1429 124.098 45.7143 127.539 45.7143H165.085V40H128.853C128.447 40 128.071 39.6857 128.071 39.2857Z" fill="black"/>
<path d="M28.2305 60V38.8235H40.8457V60H56.6147V31.7647H66.0761L34.5381 0L3 31.7647H12.4614V60H28.2305Z" fill="black"/>
</svg>
