<svg width="54" height="46" viewBox="0 0 54 46" fill="none" xmlns="http://www.w3.org/2000/svg">
<path d="M3.23303 45L9.24962 42.0216C9.58044 41.8579 9.90132 41.6803 10.2157 41.4868C11.4041 40.7554 14.5933 38.7937 16.7991 37.4457C20.0308 35.4708 21.9629 34.0829 24.8782 31.7006C27.3476 29.6827 30.5979 26.5074 31.2318 25.8841C31.3062 25.8109 31.3776 25.7383 31.4498 25.6629L36.7289 20.1552L42.3115 14.0862L51.9881 1L41.7532 12.5593L36.4969 18.0072C36.4034 18.1041 36.3097 18.1981 36.2127 18.2916C35.5217 18.958 32.4863 21.8724 30.2643 23.801L30.082 23.9593C27.6803 26.0441 26.4284 27.1309 23.801 29.0076C21.3217 30.7785 16.8574 33.5202 16.1645 33.9441C16.1014 33.9827 16.0412 34.0187 15.9773 34.056L9.37393 37.9153L1.37216 41.6441M3.60523 45H2.91097C2.51719 45 2.13518 44.8658 1.82792 44.6195V44.6195C1.53227 44.3826 1.3225 44.0552 1.23077 43.6875L1.15826 43.3969C1.05435 42.9805 1.05435 42.5449 1.15826 42.1285L1.37218 41.2712" stroke="black" stroke-width="1.5" stroke-linejoin="round"/>
<path d="M25.7768 35.8618C28.0117 35.8618 29.9321 36.6848 31.2356 37.4535C29.9303 38.2956 27.9533 39.3888 25.7768 39.3888C24.4062 39.3888 23.2295 38.9498 22.2216 38.4025C21.7165 38.1282 21.2598 37.8301 20.8404 37.5475C20.7833 37.5091 20.7262 37.4704 20.6693 37.4318C21.8877 36.6621 23.5711 35.8618 25.7768 35.8618Z" stroke="black" stroke-width="1.5"/>
<path d="M18.1688 24.2924C18.7648 22.1384 20.0702 20.507 21.1587 19.4558C21.6222 20.9383 22.1485 23.1353 21.568 25.233C21.2025 26.5539 20.4655 27.571 19.6693 28.3963C19.2702 28.81 18.8611 29.1707 18.4769 29.4996C18.4246 29.5443 18.3721 29.589 18.3197 29.6336C17.9029 28.254 17.5805 26.4182 18.1688 24.2924Z" stroke="black" stroke-width="1.5"/>
<path d="M25.6794 18.6302C26.0108 16.42 27.1094 14.6428 28.0628 13.4677C28.7021 14.8834 29.4901 17.0006 29.1674 19.1531C28.9643 20.5085 28.3556 21.6072 27.665 22.5227C27.3188 22.9816 26.9563 23.3891 26.6147 23.762C26.5682 23.8127 26.5215 23.8634 26.4748 23.914C25.8943 22.595 25.3524 20.8116 25.6794 18.6302Z" stroke="black" stroke-width="1.5"/>
<path d="M32.4839 12.5298C32.6826 10.3037 33.6731 8.46404 34.5547 7.23411C35.2774 8.60906 36.1905 10.6755 35.9969 12.8434C35.875 14.2085 35.3331 15.3416 34.6984 16.2967C34.3802 16.7755 34.0427 17.2039 33.7239 17.5965C33.6806 17.6499 33.637 17.7034 33.5935 17.7566C32.9352 16.4746 32.2877 14.7267 32.4839 12.5298Z" stroke="black" stroke-width="1.5"/>
<path d="M32.519 30.1268C34.7517 30.0251 36.7076 30.7599 38.0446 31.4685C36.779 32.3691 34.8538 33.5511 32.6795 33.6501C31.3104 33.7125 30.1149 33.3275 29.0832 32.8266C28.5661 32.5756 28.0963 32.2986 27.6644 32.0354C27.6057 31.9995 27.5469 31.9635 27.4883 31.9275C28.6704 31.1032 30.3156 30.2272 32.519 30.1268Z" stroke="black" stroke-width="1.5"/>
<path d="M39.0355 24.7333C41.2703 24.7024 43.2019 25.4988 44.5158 26.2494C43.2223 27.1095 41.2606 28.2299 39.0842 28.2599C37.7138 28.2789 36.5311 27.8562 35.5158 27.3228C35.007 27.0555 34.5462 26.7638 34.1229 26.487C34.0653 26.4494 34.0077 26.4115 33.9502 26.3737C35.1579 25.5872 36.83 24.7637 39.0355 24.7333Z" stroke="black" stroke-width="1.5"/>
<path d="M44.4904 19.318C46.7138 19.0901 48.7081 19.713 50.0831 20.3448C48.8705 21.3156 47.0152 22.6047 44.85 22.8266C43.4866 22.9663 42.2713 22.6496 41.2129 22.2079C40.6824 21.9865 40.1977 21.7365 39.7516 21.4982C39.6909 21.4658 39.6302 21.4331 39.5696 21.4005C40.7032 20.5106 42.2962 19.5429 44.4904 19.318Z" stroke="black" stroke-width="1.5"/>
<path d="M47.4337 12.8248C48.9526 12.381 50.5085 12.7804 51.6287 13.2551C51.3793 13.6525 51.0726 14.1082 50.6982 14.5545C50.0657 15.3086 49.3056 15.9523 48.423 16.2102C47.5535 16.4643 46.6722 16.3117 45.8219 16.0005C45.3986 15.8455 44.9996 15.6576 44.6245 15.4734C44.5595 15.4415 44.4938 15.4089 44.4279 15.3763C44.4112 15.368 44.3946 15.3598 44.3779 15.3515C45.014 14.3566 45.9393 13.2615 47.4337 12.8248Z" stroke="black" stroke-width="1.5"/>
<path d="M38.7058 6.78422C38.8161 5.20565 39.7303 3.88479 40.564 2.9987C40.8503 3.37039 41.1713 3.81603 41.4601 4.32201C41.9481 5.17671 42.2883 6.11286 42.2242 7.03021C42.161 7.93386 41.7122 8.70754 41.1255 9.39715C40.8334 9.74046 40.5187 10.0496 40.2159 10.3375C40.1634 10.3874 40.1101 10.4378 40.0566 10.4882C40.0431 10.501 40.0296 10.5137 40.0161 10.5265C39.3035 9.58488 38.5972 8.33728 38.7058 6.78422Z" stroke="black" stroke-width="1.5"/>
</svg>
