<svg width="110" height="107" viewBox="0 0 110 107" fill="none" xmlns="http://www.w3.org/2000/svg">
<g filter="url(#filter0_d_1_66)">
<path d="M7.65654 33.6377L12.2607 34.3339C14.7242 25.3544 20.0452 17.4399 27.2665 11.5841C34.9506 5.35562 44.7989 1.44167 55.6594 1.03522C68.5522 0.549741 80.4387 5.11288 89.2295 12.8768C98.0163 20.6407 103.708 31.6054 104.214 43.9231C104.403 48.5502 103.857 53.0268 102.678 57.2418C101.789 60.4163 100.537 63.4608 98.9655 66.3305L98.8513 66.1536C97.7269 64.4525 96.1298 63.0375 94.1999 62.0966C93.359 61.6864 92.4551 61.3627 91.502 61.1426C92.4768 59.1837 93.2744 57.1289 93.871 54.9932C94.8301 51.5666 95.2751 47.9593 95.1235 44.2637C94.7159 34.3301 90.1353 25.4955 83.0617 19.2464C75.9881 12.9991 66.4136 9.32978 56.0158 9.72118C47.2762 10.0486 39.344 13.2042 33.1487 18.2265C27.552 22.7633 23.3752 28.8224 21.2996 35.6963L24.9979 36.2532C26.2543 36.4395 27.1168 37.5648 26.9219 38.7653C26.8372 39.2903 26.5635 39.7457 26.1775 40.0731L15.8428 48.8663C14.8916 49.6755 13.4304 49.5946 12.5817 48.6838C12.4379 48.5314 12.3217 48.362 12.2311 48.187L5.31705 36.9269C4.6731 35.8788 5.04135 34.5296 6.13824 33.9143C6.6148 33.6471 7.15044 33.5643 7.65654 33.6377ZM26.7781 88.3991V62.5934C40.1002 62.5934 42.3649 62.0195 54.3735 69.2415H63.8102C68.0815 69.4842 70.3186 73.6239 66.1654 76.3411C62.859 78.6613 58.4932 78.5296 54.017 78.1457C50.9292 77.9989 50.7973 81.9618 54.017 81.975C55.1356 82.0596 56.3486 81.8075 57.4081 81.8075C62.991 81.8 67.5912 80.7801 70.4072 76.5651L71.8192 73.4132L85.8561 66.767C92.8785 64.5579 97.8746 71.5767 92.6954 76.4616C82.5281 83.5274 72.1047 89.3418 61.4412 94.0386C53.6941 98.5415 45.9489 98.3853 38.2097 94.0386L26.7781 88.3991ZM5.97479 60.1133H23.1192V90.9921H5.97479V60.1133ZM43.2215 38.2083L45.7146 32.8436H55.1139C54.9957 32.4616 54.7909 32.0871 54.4936 31.7221C54.1962 31.3552 53.8299 31.039 53.3967 30.77C52.9635 30.5028 52.4771 30.2826 51.9414 30.1208C51.4058 29.9495 50.8367 29.8686 50.24 29.8686H43.2215L45.7146 24.5039H72.6227L70.1296 29.8686H63.631C63.885 30.0549 64.1233 30.2751 64.3458 30.5272C64.5664 30.77 64.7613 31.0221 64.9327 31.2987C65.0941 31.5678 65.2379 31.835 65.358 32.1041C65.4683 32.3713 65.5451 32.6234 65.5786 32.8436H72.6227L70.1296 38.2083H65.0331C64.6589 39.1191 64.1075 39.9809 63.3671 40.7938C62.6267 41.6142 61.7681 42.3368 60.7893 42.9879C59.8027 43.6389 58.7393 44.1752 57.5893 44.6212C56.4412 45.0596 55.2774 45.3532 54.0938 45.515L68.2332 59.4246H57.0536L44.4464 46.2056V41.2812H50.0273C50.5629 41.2812 51.0907 41.2003 51.6106 41.029C52.1383 40.8578 52.6228 40.6301 53.056 40.346C53.4991 40.0694 53.8811 39.7363 54.2041 39.3712C54.5271 38.9968 54.7575 38.6148 54.8933 38.2083H43.2215Z" fill="black"/>
</g>
<defs>
<filter id="filter0_d_1_66" x="0" y="0" width="109.25" height="106.357" filterUnits="userSpaceOnUse" color-interpolation-filters="sRGB">
<feFlood flood-opacity="0" result="BackgroundImageFix"/>
<feColorMatrix in="SourceAlpha" type="matrix" values="0 0 0 0 0 0 0 0 0 0 0 0 0 0 0 0 0 0 127 0" result="hardAlpha"/>
<feOffset dy="4"/>
<feGaussianBlur stdDeviation="2.5"/>
<feComposite in2="hardAlpha" operator="out"/>
<feColorMatrix type="matrix" values="0 0 0 0 0 0 0 0 0 0 0 0 0 0 0 0 0 0 0.25 0"/>
<feBlend mode="normal" in2="BackgroundImageFix" result="effect1_dropShadow_1_66"/>
<feBlend mode="normal" in="SourceGraphic" in2="effect1_dropShadow_1_66" result="shape"/>
</filter>
</defs>
</svg>
