<svg width="35" height="38" viewBox="0 0 35 38" fill="none" xmlns="http://www.w3.org/2000/svg">
<mask id="mask0_8_1138" style="mask-type:alpha" maskUnits="userSpaceOnUse" x="0" y="0" width="35" height="38">
<rect width="35" height="38" fill="#D9D9D9"/>
</mask>
<g mask="url(#mask0_8_1138)">
<path d="M17.1354 17.0208C17.9375 17.0208 18.6241 16.7108 19.1953 16.0906C19.7665 15.4705 20.0521 14.725 20.0521 13.8542C20.0521 12.9833 19.7665 12.2378 19.1953 11.6177C18.6241 10.9976 17.9375 10.6875 17.1354 10.6875C16.3333 10.6875 15.6467 10.9976 15.0755 11.6177C14.5043 12.2378 14.2188 12.9833 14.2188 13.8542C14.2188 14.725 14.5043 15.4705 15.0755 16.0906C15.6467 16.7108 16.3333 17.0208 17.1354 17.0208ZM17.1354 28.6583C20.1007 25.7028 22.3003 23.0177 23.7344 20.6031C25.1684 18.1885 25.8854 16.0444 25.8854 14.1708C25.8854 11.2944 25.0408 8.93924 23.3516 7.10521C21.6623 5.27118 19.5903 4.35417 17.1354 4.35417C14.6806 4.35417 12.6085 5.27118 10.9193 7.10521C9.23003 8.93924 8.38542 11.2944 8.38542 14.1708C8.38542 16.0444 9.10243 18.1885 10.5365 20.6031C11.9705 23.0177 14.1701 25.7028 17.1354 28.6583ZM17.1354 32.8542C13.2222 29.2389 10.2995 25.8809 8.36719 22.7802C6.4349 19.6795 5.46875 16.8097 5.46875 14.1708C5.46875 10.2125 6.64149 7.05903 8.98698 4.71042C11.3325 2.36181 14.0486 1.1875 17.1354 1.1875C20.2222 1.1875 22.9384 2.36181 25.2839 4.71042C27.6293 7.05903 28.8021 10.2125 28.8021 14.1708C28.8021 16.8097 27.8359 19.6795 25.9036 22.7802C23.9714 25.8809 21.0486 29.2389 17.1354 32.8542Z" fill="#1C1B1F"/>
</g>
</svg>
