<svg width="23" height="28" viewBox="0 0 23 28" fill="none" xmlns="http://www.w3.org/2000/svg">
<path d="M11.5 13.8049C12.2906 13.8049 12.9674 13.5374 13.5305 13.0025C14.0935 12.4675 14.375 11.8244 14.375 11.0732C14.375 10.322 14.0935 9.67888 13.5305 9.14392C12.9674 8.60896 12.2906 8.34148 11.5 8.34148C10.7094 8.34148 10.0326 8.60896 9.46953 9.14392C8.90651 9.67888 8.625 10.322 8.625 11.0732C8.625 11.8244 8.90651 12.4675 9.46953 13.0025C10.0326 13.5374 10.7094 13.8049 11.5 13.8049ZM11.5 23.8439C14.4229 21.2943 16.5911 18.9781 18.0047 16.8951C19.4182 14.8122 20.125 12.9626 20.125 11.3464C20.125 8.86506 19.2924 6.83335 17.6273 5.25124C15.9622 3.66913 13.9198 2.87807 11.5 2.87807C9.08021 2.87807 7.03776 3.66913 5.37266 5.25124C3.70755 6.83335 2.875 8.86506 2.875 11.3464C2.875 12.9626 3.58177 14.8122 4.99531 16.8951C6.40885 18.9781 8.57708 21.2943 11.5 23.8439ZM11.5 27.4634C7.64271 24.3447 4.76172 21.448 2.85703 18.7732C0.952344 16.0984 0 13.6228 0 11.3464C0 7.93173 1.15599 5.2114 3.46797 3.18539C5.77995 1.15937 8.45729 0.146362 11.5 0.146362C14.5427 0.146362 17.2201 1.15937 19.532 3.18539C21.844 5.2114 23 7.93173 23 11.3464C23 13.6228 22.0477 16.0984 20.143 18.7732C18.2383 21.448 15.3573 24.3447 11.5 27.4634Z" fill="#1C1B1F"/>
</svg>
