<svg width="16" height="28" viewBox="0 0 16 28" fill="none" xmlns="http://www.w3.org/2000/svg">
<path d="M7.9863 13.8215C8.52207 13.8215 8.98071 13.5596 9.36224 13.0356C9.74377 12.5117 9.93454 11.8818 9.93454 11.146C9.93454 10.4103 9.74377 9.7804 9.36224 9.25644C8.98071 8.73249 8.52207 8.47051 7.9863 8.47051C7.45054 8.47051 6.99189 8.73249 6.61036 9.25644C6.22883 9.7804 6.03806 10.4103 6.03806 11.146C6.03806 11.8818 6.22883 12.5117 6.61036 13.0356C6.99189 13.5596 7.45054 13.8215 7.9863 13.8215ZM7.9863 23.6541C9.96701 21.1569 11.4363 18.8883 12.3942 16.8482C13.3521 14.8081 13.831 12.9966 13.831 11.4136C13.831 8.98332 13.2668 6.99341 12.1385 5.44384C11.0101 3.89427 9.62607 3.11948 7.9863 3.11948C6.34654 3.11948 4.96248 3.89427 3.83412 5.44384C2.70577 6.99341 2.14159 8.98332 2.14159 11.4136C2.14159 12.9966 2.62054 14.8081 3.57842 16.8482C4.5363 18.8883 6.00559 21.1569 7.9863 23.6541ZM7.9863 27.1991C5.37242 24.1446 3.42012 21.3074 2.12942 18.6876C0.838712 16.0679 0.193359 13.6432 0.193359 11.4136C0.193359 8.06918 0.976712 5.40482 2.54342 3.42048C4.11012 1.43614 5.92442 0.44397 7.9863 0.44397C10.0482 0.44397 11.8625 1.43614 13.4292 3.42048C14.9959 5.40482 15.7792 8.06918 15.7792 11.4136C15.7792 13.6432 15.1339 16.0679 13.8432 18.6876C12.5525 21.3074 10.6002 24.1446 7.9863 27.1991Z" fill="#1C1B1F"/>
</svg>
