<svg width="1166" height="810" viewBox="0 0 1166 810" fill="none" xmlns="http://www.w3.org/2000/svg">
<path opacity="0.8" d="M131.672 14.7823C137.063 5.62316 146.898 0 157.526 0H1136C1152.57 0 1166 13.4315 1166 30V780C1166 796.569 1152.57 810 1136 810H155.515C145.992 810 137.035 805.479 131.379 797.818L81.5521 730.324C80.3926 728.754 79.3892 727.074 78.5561 725.308L36.3201 635.796C35.504 634.066 34.8552 632.263 34.3825 630.41L6.9637 522.932C6.47325 521.009 6.17473 519.043 6.07252 517.061L0.169018 402.619C0.0566743 400.441 0.182128 398.257 0.543155 396.107L18.6786 288.073L44.7155 191.892L82.3781 99.1601C82.9285 97.8049 83.5773 96.4918 84.3193 95.2312L131.672 14.7823Z" fill="#819A58"/>
</svg>
