<svg width="81" height="45" viewBox="0 0 81 45" fill="none" xmlns="http://www.w3.org/2000/svg">
<g filter="url(#filter0_d_12_239)">
<path d="M4.83496 0H76.9998V37H4.83496V0Z" fill="#507E2D"/>
<path d="M52.9179 22.1383H50.5425L49.7005 21.7221C52.6473 19.9646 54.4213 17.6829 54.4213 15.2008C54.4213 9.66624 45.6713 5.17999 34.8767 5.17999C24.082 5.17999 15.332 9.66624 15.332 15.2008C15.332 20.7354 24.082 25.2217 34.8767 25.2217C39.7177 25.2217 44.1679 24.3121 47.5957 22.8012L48.4076 23.2329V24.4508L63.4419 32.1437L67.9222 29.8467L52.9179 22.1383ZM34.8767 22.1383C27.3896 22.1383 21.3458 19.0396 21.3458 15.2008C21.3458 11.3621 27.3896 8.26333 34.8767 8.26333C42.3638 8.26333 48.4076 11.3621 48.4076 15.2008C48.4076 19.0396 42.3638 22.1383 34.8767 22.1383Z" fill="black"/>
<path d="M6.5165 2.775C6.71442 2.595 6.88333 2.38368 7.01541 2.14887C7.74698 1.71271 8.23702 0.913585 8.23702 0H10.4535C10.4535 1.38071 11.5728 2.5 12.9535 2.5H18.3659C19.0749 2.5 19.715 2.20483 20.17 1.73065C20.625 2.20483 21.2651 2.5 21.9741 2.5H23.7782C25.1589 2.5 26.2782 1.38071 26.2782 0H28.4947C28.4947 1.38071 29.614 2.5 30.9947 2.5H36.4071C37.1161 2.5 37.7562 2.20482 38.2112 1.73065C38.6662 2.20482 39.3063 2.5 40.0153 2.5H41.8194C43.2001 2.5 44.3194 1.38071 44.3194 0H46.5359C46.5359 1.38071 47.6552 2.5 49.0359 2.5H54.4483C55.1573 2.5 55.7974 2.20483 56.2524 1.73065C56.7074 2.20483 57.3475 2.5 58.0565 2.5H59.8606C61.2414 2.5 62.3606 1.38071 62.3606 0H64.5771C64.5771 1.38071 65.6964 2.5 67.0771 2.5H72.4895C73.1985 2.5 73.8386 2.20483 74.2936 1.73066C74.4488 1.89244 74.6256 2.03338 74.8193 2.14887C75.2478 2.91051 76.0637 3.42499 76.9998 3.42499V5.825C75.6191 5.825 74.4998 6.94428 74.4998 8.325V13.875C74.4998 14.6082 74.8154 15.2677 75.3183 15.725C74.8154 16.1823 74.4998 16.8418 74.4998 17.575V19.425C74.4998 20.8057 75.6191 21.925 76.9998 21.925V24.325C75.6191 24.325 74.4998 25.4443 74.4998 26.825V32.375C74.4998 33.1082 74.8154 33.7677 75.3183 34.225C75.1203 34.405 74.9514 34.6163 74.8193 34.8511C74.0878 35.2873 73.5977 36.0864 73.5977 37H71.3812C71.3812 35.6193 70.262 34.5 68.8812 34.5H63.4689C62.7598 34.5 62.1197 34.7952 61.6648 35.2693C61.2098 34.7952 60.5697 34.5 59.8606 34.5H58.0565C56.6758 34.5 55.5565 35.6193 55.5565 37H53.34C53.34 35.6193 52.2208 34.5 50.84 34.5H45.4277C44.7186 34.5 44.0785 34.7952 43.6236 35.2693C43.1686 34.7952 42.5285 34.5 41.8194 34.5H40.0153C38.6346 34.5 37.5153 35.6193 37.5153 37H35.2988C35.2988 35.6193 34.1795 34.5 32.7988 34.5H27.3865C26.6774 34.5 26.0373 34.7952 25.5824 35.2693C25.1274 34.7952 24.4873 34.5 23.7782 34.5H21.9741C20.5934 34.5 19.4741 35.6193 19.4741 37H17.2576C17.2576 35.6193 16.1383 34.5 14.7576 34.5H9.34526C8.63622 34.5 7.99612 34.7952 7.54114 35.2693C7.38591 35.1076 7.20913 34.9666 7.01541 34.8511C6.58699 34.0895 5.77106 33.575 4.83496 33.575V31.175C6.21567 31.175 7.33496 30.0557 7.33496 28.675V23.125C7.33496 22.3918 7.01932 21.7323 6.5165 21.275C7.01932 20.8177 7.33496 20.1582 7.33496 19.425V17.575C7.33496 16.1943 6.21567 15.075 4.83496 15.075V12.675C6.21567 12.675 7.33496 11.5557 7.33496 10.175V4.625C7.33496 3.89179 7.01932 3.2323 6.5165 2.775Z" stroke="#507E2D" stroke-width="5" stroke-linecap="round" stroke-linejoin="round" stroke-dasharray="2 4 6 8"/>
</g>
<defs>
<filter id="filter0_d_12_239" x="0.834961" y="0" width="80.165" height="45" filterUnits="userSpaceOnUse" color-interpolation-filters="sRGB">
<feFlood flood-opacity="0" result="BackgroundImageFix"/>
<feColorMatrix in="SourceAlpha" type="matrix" values="0 0 0 0 0 0 0 0 0 0 0 0 0 0 0 0 0 0 127 0" result="hardAlpha"/>
<feOffset dy="4"/>
<feGaussianBlur stdDeviation="2"/>
<feComposite in2="hardAlpha" operator="out"/>
<feColorMatrix type="matrix" values="0 0 0 0 0 0 0 0 0 0 0 0 0 0 0 0 0 0 0.25 0"/>
<feBlend mode="normal" in2="BackgroundImageFix" result="effect1_dropShadow_12_239"/>
<feBlend mode="normal" in="SourceGraphic" in2="effect1_dropShadow_12_239" result="shape"/>
</filter>
</defs>
</svg>
