<svg width="81" height="45" viewBox="0 0 81 45" fill="none" xmlns="http://www.w3.org/2000/svg">
<g filter="url(#filter0_d_45_532)">
<path d="M4 0H76.1648V37H4V0Z" fill="#507E2D"/>
<path d="M52.0829 22.1384H49.7075L48.8656 21.7221C51.8123 19.9646 53.5864 17.683 53.5864 15.2009C53.5864 9.6663 44.8364 5.18005 34.0417 5.18005C23.2471 5.18005 14.4971 9.6663 14.4971 15.2009C14.4971 20.7355 23.2471 25.2217 34.0417 25.2217C38.8828 25.2217 43.3329 24.3121 46.7608 22.8013L47.5726 23.233V24.4509L62.607 32.1438L67.0872 29.8467L52.0829 22.1384ZM34.0417 22.1384C26.5546 22.1384 20.5108 19.0396 20.5108 15.2009C20.5108 11.3621 26.5546 8.26339 34.0417 8.26339C41.5288 8.26339 47.5726 11.3621 47.5726 15.2009C47.5726 19.0396 41.5288 22.1384 34.0417 22.1384Z" fill="black"/>
<path d="M5.68154 2.775C5.87945 2.595 6.04837 2.38368 6.18045 2.14887C6.91202 1.71271 7.40206 0.913585 7.40206 0H9.61854C9.61854 1.38071 10.7378 2.5 12.1185 2.5H17.5309C18.2399 2.5 18.88 2.20483 19.335 1.73065C19.79 2.20483 20.4301 2.5 21.1391 2.5H22.9433C24.324 2.5 25.4433 1.38071 25.4433 0H27.6598C27.6598 1.38071 28.779 2.5 30.1598 2.5H35.5721C36.2812 2.5 36.9213 2.20482 37.3762 1.73065C37.8312 2.20482 38.4713 2.5 39.1804 2.5H40.9845C42.3652 2.5 43.4845 1.38071 43.4845 0H45.701C45.701 1.38071 46.8202 2.5 48.201 2.5H53.6133C54.3224 2.5 54.9625 2.20483 55.4174 1.73065C55.8724 2.20483 56.5125 2.5 57.2216 2.5H59.0257C60.4064 2.5 61.5257 1.38071 61.5257 0H63.7422C63.7422 1.38071 64.8615 2.5 66.2422 2.5H71.6545C72.3636 2.5 73.0037 2.20483 73.4586 1.73066C73.6139 1.89244 73.7907 2.03338 73.9844 2.14887C74.4128 2.91051 75.2287 3.42499 76.1648 3.42499V5.825C74.7841 5.825 73.6648 6.94428 73.6648 8.325V13.875C73.6648 14.6082 73.9805 15.2677 74.4833 15.725C73.9805 16.1823 73.6648 16.8418 73.6648 17.575V19.425C73.6648 20.8057 74.7841 21.925 76.1648 21.925V24.325C74.7841 24.325 73.6648 25.4443 73.6648 26.825V32.375C73.6648 33.1082 73.9805 33.7677 74.4833 34.225C74.2854 34.405 74.1165 34.6163 73.9844 34.8511C73.2528 35.2873 72.7628 36.0864 72.7628 37H70.5463C70.5463 35.6193 69.427 34.5 68.0463 34.5H62.6339C61.9249 34.5 61.2848 34.7952 60.8298 35.2693C60.3748 34.7952 59.7347 34.5 59.0257 34.5H57.2216C55.8409 34.5 54.7216 35.6193 54.7216 37H52.5051C52.5051 35.6193 51.3858 34.5 50.0051 34.5H44.5927C43.8837 34.5 43.2436 34.7952 42.7886 35.2693C42.3336 34.7952 41.6935 34.5 40.9845 34.5H39.1804C37.7996 34.5 36.6804 35.6193 36.6804 37H34.4639C34.4639 35.6193 33.3446 34.5 31.9639 34.5H26.5515C25.8425 34.5 25.2024 34.7952 24.7474 35.2693C24.2924 34.7952 23.6523 34.5 22.9433 34.5H21.1391C19.7584 34.5 18.6391 35.6193 18.6391 37H16.4227C16.4227 35.6193 15.3034 34.5 13.9227 34.5H8.5103C7.80126 34.5 7.16116 34.7952 6.70618 35.2693C6.55095 35.1076 6.37417 34.9666 6.18045 34.8511C5.75203 34.0895 4.9361 33.575 4 33.575V31.175C5.38071 31.175 6.5 30.0557 6.5 28.675V23.125C6.5 22.3918 6.18436 21.7323 5.68154 21.275C6.18436 20.8177 6.5 20.1582 6.5 19.425V17.575C6.5 16.1943 5.38071 15.075 4 15.075V12.675C5.38071 12.675 6.5 11.5557 6.5 10.175V4.625C6.5 3.89179 6.18436 3.2323 5.68154 2.775Z" stroke="#507E2D" stroke-width="5" stroke-linecap="round" stroke-linejoin="round" stroke-dasharray="2 4 6 8"/>
</g>
<defs>
<filter id="filter0_d_45_532" x="0" y="0" width="80.165" height="45" filterUnits="userSpaceOnUse" color-interpolation-filters="sRGB">
<feFlood flood-opacity="0" result="BackgroundImageFix"/>
<feColorMatrix in="SourceAlpha" type="matrix" values="0 0 0 0 0 0 0 0 0 0 0 0 0 0 0 0 0 0 127 0" result="hardAlpha"/>
<feOffset dy="4"/>
<feGaussianBlur stdDeviation="2"/>
<feComposite in2="hardAlpha" operator="out"/>
<feColorMatrix type="matrix" values="0 0 0 0 0 0 0 0 0 0 0 0 0 0 0 0 0 0 0.25 0"/>
<feBlend mode="normal" in2="BackgroundImageFix" result="effect1_dropShadow_45_532"/>
<feBlend mode="normal" in="SourceGraphic" in2="effect1_dropShadow_45_532" result="shape"/>
</filter>
</defs>
</svg>
