<svg width="70" height="70" viewBox="0 0 70 70" fill="none" xmlns="http://www.w3.org/2000/svg">
<path d="M63 14.7368H55.37C55.755 13.5947 56 12.3421 56 11.0526C56 4.93684 51.31 0 45.5 0C41.825 0 38.64 1.98947 36.75 4.97368L35 7.44211L33.25 4.93684C31.36 1.98947 28.175 0 24.5 0C18.69 0 14 4.93684 14 11.0526C14 12.3421 14.245 13.5947 14.63 14.7368H7C3.115 14.7368 0.035 18.0158 0.035 22.1053L0 62.6316C0 66.7211 3.115 70 7 70H63C66.885 70 70 66.7211 70 62.6316V22.1053C70 18.0158 66.885 14.7368 63 14.7368ZM45.5 7.36842C47.425 7.36842 49 9.02632 49 11.0526C49 13.0789 47.425 14.7368 45.5 14.7368C43.575 14.7368 42 13.0789 42 11.0526C42 9.02632 43.575 7.36842 45.5 7.36842ZM24.5 7.36842C26.425 7.36842 28 9.02632 28 11.0526C28 13.0789 26.425 14.7368 24.5 14.7368C22.575 14.7368 21 13.0789 21 11.0526C21 9.02632 22.575 7.36842 24.5 7.36842ZM63 62.6316H7V55.2632H63V62.6316ZM63 44.2105H7V22.1053H24.78L17.5 32.5316L23.17 36.8421L31.5 24.9053L35 19.8947L38.5 24.9053L46.83 36.8421L52.5 32.5316L45.22 22.1053H63V44.2105Z" fill="#48742C"/>
</svg>
