<svg width="50" height="38" viewBox="0 0 50 38" fill="none" xmlns="http://www.w3.org/2000/svg">
<path d="M25.033 14.2698H29.9478V8.99244H37.3201V5.47418H29.9478V0.196777H25.033V5.47418H17.6608V8.99244H25.033V14.2698ZM15.2034 30.102C12.5003 30.102 10.3132 31.6853 10.3132 33.6203C10.3132 35.5553 12.5003 37.1386 15.2034 37.1386C17.9066 37.1386 20.1182 35.5553 20.1182 33.6203C20.1182 31.6853 17.9066 30.102 15.2034 30.102ZM39.7775 30.102C37.0743 30.102 34.8872 31.6853 34.8872 33.6203C34.8872 35.5553 37.0743 37.1386 39.7775 37.1386C42.4806 37.1386 44.6923 35.5553 44.6923 33.6203C44.6923 31.6853 42.4806 30.102 39.7775 30.102ZM15.6212 24.3849L15.6949 24.1738L17.9066 21.3064H36.2142C38.0573 21.3064 39.6792 20.5851 40.5147 19.4945L50.0003 7.16294L45.7244 5.47418H45.6998L42.9967 8.99244L36.2142 17.7881H18.9632L18.6438 17.3131L13.1392 8.99244L10.8047 5.47418L8.4947 1.95591H0.458984V5.47418H5.37379L14.2205 18.826L10.903 23.1359C10.5098 23.6284 10.2886 24.2089 10.2886 24.8246C10.2886 26.7597 12.5003 28.3429 15.2034 28.3429H44.6923V24.8246H16.2355C15.9161 24.8246 15.6212 24.6311 15.6212 24.3849Z" fill="black"/>
</svg>
