<svg width="50" height="38" viewBox="0 0 50 38" fill="none" xmlns="http://www.w3.org/2000/svg">
<path d="M25.0331 14.27H29.9479V8.99258H37.3201V5.47431H29.9479V0.196899H25.0331V5.47431H17.6609V8.99258H25.0331V14.27ZM15.2034 30.1022C12.5003 30.1022 10.3132 31.6854 10.3132 33.6205C10.3132 35.5555 12.5003 37.1388 15.2034 37.1388C17.9066 37.1388 20.1183 35.5555 20.1183 33.6205C20.1183 31.6854 17.9066 30.1022 15.2034 30.1022ZM39.7775 30.1022C37.0744 30.1022 34.8873 31.6854 34.8873 33.6205C34.8873 35.5555 37.0744 37.1388 39.7775 37.1388C42.4807 37.1388 44.6924 35.5555 44.6924 33.6205C44.6924 31.6854 42.4807 30.1022 39.7775 30.1022ZM15.6212 24.385L15.6949 24.1739L17.9066 21.3065H36.2143C38.0574 21.3065 39.6792 20.5853 40.5148 19.4946L50.0004 7.16308L45.7245 5.47431H45.6999L42.9967 8.99258L36.2143 17.7883H18.9633L18.6438 17.3133L13.1392 8.99258L10.8047 5.47431L8.49471 1.95604H0.458984V5.47431H5.3738L14.2205 18.8262L10.903 23.136C10.5098 23.6286 10.2886 24.2091 10.2886 24.8248C10.2886 26.7599 12.5003 28.3431 15.2034 28.3431H44.6924V24.8248H16.2356C15.9161 24.8248 15.6212 24.6313 15.6212 24.385Z" fill="black"/>
</svg>
