<svg width="56" height="56" viewBox="0 0 56 56" fill="none" xmlns="http://www.w3.org/2000/svg">
<path d="M46.6667 39.5823C44.3022 39.5823 42.1867 40.4257 40.5689 41.747L18.3867 30.0803C18.5422 29.4337 18.6667 28.7871 18.6667 28.1124C18.6667 27.4378 18.5422 26.7912 18.3867 26.1446L40.32 14.5904C42 15.996 44.2089 16.8675 46.6667 16.8675C51.8311 16.8675 56 13.1004 56 8.43373C56 3.76707 51.8311 0 46.6667 0C41.5022 0 37.3333 3.76707 37.3333 8.43373C37.3333 9.10843 37.4578 9.75502 37.6133 10.4016L15.68 21.9558C14 20.5502 11.7911 19.6787 9.33333 19.6787C4.16889 19.6787 0 23.4458 0 28.1124C0 32.7791 4.16889 36.5462 9.33333 36.5462C11.7911 36.5462 14 35.6747 15.68 34.2691L37.8311 45.9639C37.6756 46.5542 37.5822 47.1727 37.5822 47.7912C37.5822 52.3173 41.6578 56 46.6667 56C51.6756 56 55.7511 52.3173 55.7511 47.7912C55.7511 43.2651 51.6756 39.5823 46.6667 39.5823Z" fill="black"/>
</svg>
