<svg width="80" height="83" viewBox="0 0 80 83" fill="none" xmlns="http://www.w3.org/2000/svg">
<path d="M40.275 66.2289L40 66.0478L39.725 66.2289L16.0241 81.8375L22.3289 52.348L22.3877 52.0732L22.1835 51.8801L1.14679 31.9952L28.8061 29.4347L29.1141 29.4062L29.2261 29.1179L40 1.38093L50.7739 29.1179L50.8859 29.4062L51.1939 29.4347L78.8532 31.9952L57.8165 51.8801L57.6123 52.0732L57.6711 52.348L63.9759 81.8375L40.275 66.2289Z" fill="#155605"/>
<path d="M40.275 66.2289L40 66.0478L39.725 66.2289L16.0241 81.8375L22.3289 52.348L22.3877 52.0732L22.1835 51.8801L1.14679 31.9952L28.8061 29.4347L29.1141 29.4062L29.2261 29.1179L40 1.38093L50.7739 29.1179L50.8859 29.4062L51.1939 29.4347L78.8532 31.9952L57.8165 51.8801L57.6123 52.0732L57.6711 52.348L63.9759 81.8375L40.275 66.2289Z" stroke="black"/>
<path d="M40.275 66.2289L40 66.0478L39.725 66.2289L16.0241 81.8375L22.3289 52.348L22.3877 52.0732L22.1835 51.8801L1.14679 31.9952L28.8061 29.4347L29.1141 29.4062L29.2261 29.1179L40 1.38093L50.7739 29.1179L50.8859 29.4062L51.1939 29.4347L78.8532 31.9952L57.8165 51.8801L57.6123 52.0732L57.6711 52.348L63.9759 81.8375L40.275 66.2289Z" stroke="black" stroke-opacity="0.2"/>
</svg>
