<svg width="80" height="75" viewBox="0 0 80 75" fill="none" xmlns="http://www.w3.org/2000/svg">
<path d="M40 74.4888C17.92 74.4888 0 57.9576 0 37.5888C0 17.22 17.92 0.688766 40 0.688766C62.08 0.688766 80 17.22 80 37.5888C80 57.9576 62.08 74.4888 40 74.4888ZM40 63.4188C46.64 63.4188 52 58.4742 52 52.3488C52 46.2234 46.64 41.2788 40 41.2788C33.36 41.2788 28 46.2234 28 52.3488C28 58.4742 33.36 63.4188 40 63.4188ZM40 11.0208C30 11.0208 21.16 15.744 16 22.9026C16.12 30.2457 32 34.2678 40 34.2678C47.96 34.2678 63.88 30.2457 64 22.9026C58.84 15.744 50 11.0208 40 11.0208Z" fill="white"/>
</svg>
