<svg width="47" height="38" viewBox="0 0 47 38" fill="none" xmlns="http://www.w3.org/2000/svg">
<path d="M33.2617 23.4584H31.2185L30.4943 22.8826C33.029 20.4515 34.5549 17.2953 34.5549 13.8618C34.5549 6.20582 27.0286 0 17.7435 0C8.45846 0 0.932129 6.20582 0.932129 13.8618C0.932129 21.5178 8.45846 27.7236 17.7435 27.7236C21.9076 27.7236 25.7354 26.4654 28.6839 24.3754L29.3822 24.9726V26.6573L42.314 37.2989L46.1677 34.1214L33.2617 23.4584ZM17.7435 23.4584C11.3035 23.4584 6.10487 19.1719 6.10487 13.8618C6.10487 8.55167 11.3035 4.26517 17.7435 4.26517C24.1836 4.26517 29.3822 8.55167 29.3822 13.8618C29.3822 19.1719 24.1836 23.4584 17.7435 23.4584Z" fill="#48742C"/>
</svg>
