<svg width="52" height="52" viewBox="0 0 52 52" fill="none" xmlns="http://www.w3.org/2000/svg">
<path d="M43.3333 36.755C41.1378 36.755 39.1733 37.5382 37.6711 38.7651L17.0733 27.9317C17.2178 27.3313 17.3333 26.7309 17.3333 26.1044C17.3333 25.4779 17.2178 24.8775 17.0733 24.2771L37.44 13.5482C39 14.8534 41.0511 15.6627 43.3333 15.6627C48.1289 15.6627 52 12.1647 52 7.83133C52 3.49799 48.1289 0 43.3333 0C38.5378 0 34.6667 3.49799 34.6667 7.83133C34.6667 8.45783 34.7822 9.05823 34.9267 9.65863L14.56 20.3876C13 19.0823 10.9489 18.2731 8.66667 18.2731C3.87111 18.2731 0 21.7711 0 26.1044C0 30.4377 3.87111 33.9357 8.66667 33.9357C10.9489 33.9357 13 33.1265 14.56 31.8213L35.1289 42.6807C34.9844 43.2289 34.8978 43.8032 34.8978 44.3775C34.8978 48.5803 38.6822 52 43.3333 52C47.9844 52 51.7689 48.5803 51.7689 44.3775C51.7689 40.1747 47.9844 36.755 43.3333 36.755Z" fill="#155605"/>
</svg>
