<svg width="55" height="55" viewBox="0 0 55 55" fill="none" xmlns="http://www.w3.org/2000/svg">
<path d="M45.8333 38.3387C43.5111 38.3387 41.4333 39.1555 39.8444 40.4353L18.0583 29.1352C18.2111 28.5089 18.3333 27.8827 18.3333 27.2292C18.3333 26.5757 18.2111 25.9494 18.0583 25.3231L39.6 14.1319C41.25 15.4934 43.4194 16.3375 45.8333 16.3375C50.9056 16.3375 55 12.6888 55 8.16875C55 3.64871 50.9056 0 45.8333 0C40.7611 0 36.6667 3.64871 36.6667 8.16875C36.6667 8.82225 36.7889 9.44852 36.9417 10.0748L15.4 21.266C13.75 19.9045 11.5806 19.0604 9.16667 19.0604C4.09444 19.0604 0 22.7091 0 27.2292C0 31.7492 4.09444 35.3979 9.16667 35.3979C11.5806 35.3979 13.75 34.5538 15.4 33.1924L37.1556 44.5197C37.0028 45.0915 36.9111 45.6905 36.9111 46.2896C36.9111 50.6735 40.9139 54.2405 45.8333 54.2405C50.7528 54.2405 54.7556 50.6735 54.7556 46.2896C54.7556 41.9057 50.7528 38.3387 45.8333 38.3387Z" fill="#48742C"/>
</svg>
