<svg width="37" height="39" viewBox="0 0 37 39" fill="none" xmlns="http://www.w3.org/2000/svg">
<path d="M18.7742 30.2743L18.5 30.0945L18.2258 30.2743L7.81162 37.1035L10.5899 24.1645L10.6491 23.8887L10.4437 23.6954L1.15034 14.9484L13.3474 13.8241L13.655 13.7957L13.7673 13.5079L18.5 1.37581L23.2327 13.5079L23.345 13.7957L23.6526 13.8241L35.8497 14.9484L26.5563 23.6954L26.3509 23.8887L26.4101 24.1645L29.1884 37.1035L18.7742 30.2743Z" fill="#155605"/>
<path d="M18.7742 30.2743L18.5 30.0945L18.2258 30.2743L7.81162 37.1035L10.5899 24.1645L10.6491 23.8887L10.4437 23.6954L1.15034 14.9484L13.3474 13.8241L13.655 13.7957L13.7673 13.5079L18.5 1.37581L23.2327 13.5079L23.345 13.7957L23.6526 13.8241L35.8497 14.9484L26.5563 23.6954L26.3509 23.8887L26.4101 24.1645L29.1884 37.1035L18.7742 30.2743Z" stroke="black"/>
<path d="M18.7742 30.2743L18.5 30.0945L18.2258 30.2743L7.81162 37.1035L10.5899 24.1645L10.6491 23.8887L10.4437 23.6954L1.15034 14.9484L13.3474 13.8241L13.655 13.7957L13.7673 13.5079L18.5 1.37581L23.2327 13.5079L23.345 13.7957L23.6526 13.8241L35.8497 14.9484L26.5563 23.6954L26.3509 23.8887L26.4101 24.1645L29.1884 37.1035L18.7742 30.2743Z" stroke="black" stroke-opacity="0.2"/>
</svg>
