<svg width="19" height="21" viewBox="0 0 19 21" fill="none" xmlns="http://www.w3.org/2000/svg">
<path d="M13.5792 13.0387H12.721L12.4168 12.7187C13.4814 11.3674 14.1224 9.61308 14.1224 7.70469C14.1224 3.44933 10.9611 0 7.06118 0C3.16124 0 0 3.44933 0 7.70469C0 11.96 3.16124 15.4094 7.06118 15.4094C8.81018 15.4094 10.418 14.71 11.6564 13.5484L11.9497 13.8803V14.8167L17.3814 20.7315L19 18.9654L13.5792 13.0387ZM7.06118 13.0387C4.3562 13.0387 2.17267 10.6562 2.17267 7.70469C2.17267 4.7532 4.3562 2.37067 7.06118 2.37067C9.76615 2.37067 11.9497 4.7532 11.9497 7.70469C11.9497 10.6562 9.76615 13.0387 7.06118 13.0387Z" fill="black"/>
</svg>
